<?xml version="1.0" encoding="UTF-8"?>
<svg id="Layer_1" data-name="Layer 1" xmlns="http://www.w3.org/2000/svg" viewBox="0 0 2900 2259">
  <defs>
    <style>
      .cls-1 {
        fill: #000;
        stroke-width: 0px;
      }
    </style>
  </defs>
  <path class="cls-1" d="M1867.94,2258.99c.06-.65.4-1.44.15-1.94-9.38-18.93-11.61-39.48-13.24-60.07-2.29-28.99-2.28-57.91,5.03-86.37,3.09-12.05,7.85-23.34,15.72-33.13,9.39-11.68,21.28-19.43,36.35-20.55,15.59-1.16,31.26-1.53,46.89-1.56,52.32-.12,104.64.51,156.95-.1,17.98-.21,29.66,7.66,38.2,22.25,7.16,12.23,11.28,25.61,13.75,39.41,6.46,36.1,10.41,72.5,11.07,109.19.2,10.95-.59,21.92-.93,32.88h-59.99c-.01-2.63-.03-5.26-.03-7.89.01-14.6.84-29.25-.16-43.78-1.25-18.29-5.21-36.15-13.49-52.79-8.2-16.48-21.15-25.98-39.65-27.86-32.29-3.29-64.45-.26-96.59,2.05-18.29,1.32-30.61,11.95-38.03,28.25-2.59,5.7-4.71,11.8-5.83,17.94-4.94,26.98-4.23,53.59,6.66,79.3.63,1.49.78,3.17,1.15,4.77h-63.99Z"/>
  <path class="cls-1" d="M1218.03,2258.99c-15.52-34.41-16.2-70.99-14.74-107.62.59-14.82,3.6-29.68,6.93-44.19,1.89-8.24,5.87-16.31,10.3-23.61,9.48-15.62,23.38-25.55,42.02-26.86,14.91-1.05,29.89-1.33,44.85-1.36,52.91-.09,105.83.41,158.74-.04,16.24-.14,27.23,6.97,35.5,19.81,7.3,11.33,11.76,23.95,14.11,37.07,3.22,17.98,6.46,36.06,7.82,54.24,2.01,26.82,2.43,53.77,3.36,80.67.14,3.95-.6,7.92-.94,11.89h-59.99c2.9-19.88,2.99-39.77.03-59.66-2.4-16.18-5.88-32.04-13.68-46.65-8.12-15.22-20.58-24.07-37.82-25.88-33.63-3.52-67.15-.63-100.6,2.37-13.31,1.19-23.79,8.76-30.56,20.2-4.01,6.77-7.39,14.29-9.21,21.91-7.13,30-5.3,59.41,7.86,87.7h-63.99Z"/>
  <path class="cls-1" d="M2519.84,2258.99c.06-.65.4-1.44.15-1.94-9.38-18.93-11.61-39.47-13.24-60.06-2.29-28.98-2.28-57.9,5.02-86.35,3.09-12.05,7.84-23.33,15.7-33.13,9.38-11.68,21.29-19.04,36.32-20.67,7.6-.82,15.26-1.48,22.9-1.48,60.3-.05,120.61.47,180.91-.09,17.95-.17,29.69,7.57,38.25,22.15,7.17,12.22,11.68,25.56,13.69,39.4,3.44,23.68,6.64,47.47,8.33,71.32,1.68,23.55,1.36,47.23,1.92,70.86h-59.99c-.01-2.63-.03-5.26-.03-7.89.01-14.6.84-29.25-.16-43.78-1.25-18.29-5.21-36.15-13.49-52.79-8.2-16.48-21.15-25.98-39.65-27.86-32.29-3.29-64.45-.26-96.59,2.05-18.29,1.32-30.61,11.95-38.03,28.26-2.59,5.7-4.71,11.8-5.83,17.94-4.94,26.98-4.23,53.59,6.65,79.3.63,1.49.78,3.17,1.15,4.77h-63.99Z"/>
  <path class="cls-1" d="M566.13,2258.99c.06-.65.4-1.44.15-1.94-9.38-18.93-11.61-39.47-13.24-60.06-2.29-28.98-2.28-57.9,5.02-86.35,3.09-12.05,7.84-23.33,15.7-33.13,9.38-11.68,21.29-19.04,36.32-20.67,7.6-.82,15.26-1.48,22.9-1.48,60.3-.05,120.61.47,180.91-.09,17.95-.17,29.69,7.57,38.25,22.15,7.17,12.22,11.68,25.56,13.69,39.4,3.44,23.68,6.64,47.46,8.34,71.32,1.68,23.55,1.36,47.23,1.92,70.86h-59.99c-.01-2.63-.03-5.26-.03-7.89.01-14.6.84-29.25-.16-43.78-1.25-18.29-5.21-36.15-13.49-52.79-8.2-16.48-21.15-25.98-39.65-27.86-32.29-3.29-64.45-.26-96.59,2.05-18.29,1.32-30.61,11.95-38.03,28.25-2.59,5.7-4.71,11.8-5.83,17.94-4.94,26.98-4.23,53.59,6.65,79.3.63,1.49.78,3.17,1.15,4.77h-63.99Z"/>
  <path class="cls-1" d="M.21,61.98c53.97.14,107.95.72,161.92.18,17.98-.18,29.66,7.7,38.17,22.28,8.71,14.92,12.91,31.42,15.46,48.22,7.46,49.14,12.18,98.5,8.11,148.25-1.14,13.9-2.8,27.89-5.88,41.46-7.38,32.47-37.68,53.96-70.69,49.93-15.46-1.89-30.66-5.97-45.93-9.27-27.47-5.95-55.18-9.12-83.32-7.3-5.96.39-11.89,1.39-17.83,2.11,0-11.99,0-23.99,0-35.98,3.65-.17,7.3-.47,10.95-.48,31.97-.14,63.94-.39,95.9-.28,24.18.08,40.34-11.36,49.47-33.31,1.78-4.28,3.37-8.72,4.4-13.23,8.25-36.39,5.32-72.13-7.62-106.94-7.77-20.9-22.78-33.11-45.67-34.44-3.65-.21-7.3-.81-10.95-.79-32.25.21-64.55-.16-96.49,5.57V61.98Z"/>
  <path class="cls-1" d="M.21,1391.38c7.31-.09,14.63-.25,21.94-.25,47.31-.02,94.62.37,141.93-.23,15.52-.2,26,6.49,34.11,18.55,6.96,10.36,11.36,21.95,13.79,34.05,3.14,15.64,6.11,31.4,7.68,47.25,2.53,25.48,4.64,51.06,5.45,76.65.85,26.96-1.22,53.85-6.25,80.47-7.78,41.26-48.21,58.59-78.5,52.26-17.26-3.6-34.41-7.72-51.72-11.05-27.27-5.26-54.73-7.72-82.46-3.92-1.96.27-3.98.07-5.98.09,0-11.99,0-23.99,0-35.98,37.31,0,74.62.22,111.92-.08,16.07-.13,28.71-7.55,37.84-20.78,6.35-9.19,9.94-19.53,12.2-30.37,4.4-21.12,4.04-42.35,1.01-63.58-2.22-15.53-5.65-30.74-12.81-44.91-7.56-14.97-19.14-24.52-35.95-27.08-4.59-.7-9.27-1.39-13.89-1.29-27.63.59-55.26,1.22-82.88,2.32-5.86.23-11.64,2.51-17.46,3.84,0-25.32,0-50.64,0-75.97Z"/>
  <path class="cls-1" d="M.21,727.68c7.31-.09,14.63-.25,21.94-.25,47.31-.02,94.62.37,141.93-.23,15.52-.2,26,6.49,34.11,18.55,6.96,10.36,11.36,21.95,13.79,34.05,3.14,15.64,6.11,31.4,7.68,47.25,2.52,25.48,4.64,51.06,5.45,76.65.85,26.96-1.22,53.85-6.25,80.47-7.78,41.26-48.21,58.59-78.5,52.26-17.26-3.6-34.41-7.72-51.72-11.05-27.27-5.26-54.73-7.72-82.46-3.92-1.96.27-3.98.07-5.98.09v-35.98c37.31,0,74.62.22,111.92-.08,16.07-.13,28.71-7.55,37.84-20.78,6.35-9.19,9.94-19.53,12.2-30.37,4.4-21.12,4.04-42.35,1.01-63.58-2.22-15.53-5.65-30.74-12.81-44.91-7.56-14.97-19.14-24.52-35.95-27.08-4.59-.7-9.27-1.39-13.89-1.29-27.63.59-55.26,1.22-82.88,2.32-5.86.23-11.64,2.51-17.46,3.84,0-25.32,0-50.64,0-75.97Z"/>
  <path class="cls-1" d="M.21,2055.08c53.97.14,107.95.72,161.92.18,17.98-.18,29.64,7.7,38.17,22.28,8.55,14.62,12.8,30.77,15.29,47.24,6.17,40.84,10.73,81.86,9.56,123.29-.1,3.64-.64,7.28-.97,10.91h-59.99c.32-6.62.68-13.23.95-19.85,1.05-25.85-1.84-51.15-10.65-75.62-8.09-22.49-23.13-36.08-47.81-37.39-3.32-.18-6.64-.67-9.96-.65-32.26.22-64.56-.15-96.51,5.57v-75.97Z"/>
  <path class="cls-1" d="M.21,387.84c40.37-1.65,79.55,4.62,117.62,17.95,6.57,2.3,13,5.1,19.29,8.09,27.84,13.21,47.05,34.34,57.05,63.51,9.67,28.22,15.21,57.21,13.95,87.15-2.03,48-24.6,81.8-70.05,99.27-34.26,13.16-69.87,15.62-106.07,12.91-10.61-.8-21.19-1.99-31.79-3,0-13.99,0-27.99,0-41.98,5.88,1.07,11.77,2.1,17.64,3.21,18.93,3.6,37.76,7.74,57.25,7.11,38.44-1.26,66.05-22.38,77.16-59.18,4.99-16.53,5.73-33.4,3.85-50.36-5.36-48.53-31.54-83.95-79.94-99-24.96-7.76-50.36-8.02-75.95-3.69v-41.98Z"/>
  <path class="cls-1" d="M.21,1717.23c14.91.09,29.92-.91,44.71.5,25.88,2.47,51.19,8.26,75.61,17.41,5.9,2.21,11.69,4.8,17.37,7.53,27.45,13.22,46.33,34.22,56.23,63.03,9.81,28.54,15.42,57.88,13.95,88.16-2.26,46.64-24.09,79.91-68.16,97.59-30.57,12.26-62.48,15.38-95.01,14.17-9.96-.37-19.89-1.57-29.85-2.21-4.94-.32-9.91-.23-14.86-.33,0-13.99,0-27.99,0-41.98,3.94.33,7.92.44,11.82,1.02,18.75,2.79,37.4,7.22,56.24,8.27,43.68,2.44,76.41-23.53,85.84-66.27,4.15-18.83,3.8-37.75-.07-56.53-8.22-39.88-31-67.78-69.17-82.71-18.26-7.14-37.27-10-56.77-9.51-9.31.24-18.6,1.18-27.89,1.81,0-13.33,0-26.65,0-39.98Z"/>
  <path class="cls-1" d="M.21,1053.53c14.91.09,29.92-.91,44.71.5,25.88,2.47,51.19,8.26,75.61,17.41,5.9,2.21,11.69,4.8,17.37,7.53,27.45,13.22,46.33,34.22,56.23,63.03,9.81,28.54,15.42,57.88,13.95,88.16-2.26,46.64-24.09,79.91-68.16,97.59-30.57,12.26-62.48,15.38-95.01,14.17-9.96-.37-19.89-1.57-29.85-2.21-4.94-.32-9.91-.23-14.86-.33,0-13.99,0-27.99,0-41.98,3.94.33,7.92.44,11.82,1.02,18.75,2.79,37.4,7.22,56.24,8.27,43.68,2.44,76.41-23.53,85.84-66.27,4.15-18.83,3.8-37.75-.07-56.53-8.22-39.88-31-67.78-69.17-82.71-18.26-7.14-37.27-10-56.77-9.51-9.31.24-18.6,1.18-27.89,1.81v-39.98Z"/>
  <path class="cls-1" d="M2899.79,711.69c-4.95-.27-9.94-1.03-14.85-.73-14.9.94-25.45-6.04-33.58-17.68-8.15-11.66-13.11-24.85-15.32-38.64-3.94-24.57-7.56-49.26-9.67-74.05-2.68-31.48-2.89-63.1-.24-94.65.89-10.57,1.82-21.21,3.81-31.61,5.9-30.94,30.36-52.02,61.91-54.04,2.65-.17,5.3-.31,7.95-.46v71.97c-4,8.98-9.22,17.63-11.78,27-6.85,25.06-5.64,50.56-1.14,75.9,2.41,13.58,5.2,27.15,12.92,39.03v97.96Z"/>
  <path class="cls-1" d="M2899.79,2039.09c-5.99.02-11.98-.21-17.95.1-9.7.51-17.4-3.52-24.1-9.97-7.85-7.56-12.52-17.06-16.25-27.12-6.52-17.59-9.3-35.98-11.5-54.47-5.36-44.98-7.19-90.08-3.78-135.29.77-10.24,1.85-20.54,3.89-30.59,6.8-33.49,34.25-53.95,69.69-52.52v71.97c-6.63,7.31-9.46,16.43-11.9,25.63-5.36,20.16-5.44,40.71-3.21,61.24,2.08,19.1,5.63,37.93,15.11,55.07v95.96Z"/>
  <path class="cls-1" d="M2899.79,1375.39c-5.99.02-11.98-.21-17.95.1-9.7.51-17.4-3.52-24.1-9.97-7.85-7.56-12.52-17.06-16.25-27.12-6.52-17.59-9.3-35.98-11.5-54.47-5.36-44.98-7.19-90.08-3.78-135.29.77-10.24,1.85-20.54,3.89-30.59,6.8-33.49,34.25-53.95,69.69-52.52v71.97c-6.63,7.31-9.46,16.43-11.9,25.63-5.36,20.16-5.44,40.71-3.21,61.24,2.08,19.1,5.63,37.93,15.11,55.07v95.96Z"/>
  <path class="cls-1" d="M2195.89,2258.99c-7.31-29.16-9.35-58.48-1.39-87.79,8.2-30.15,27.39-51.22,55.5-64.37,29.26-13.69,60.36-18.49,92.32-17.88,16.28.31,32.55,1.99,48.8,3.26,13.96,1.09,27.91,2.48,41.78-.51,24.63-5.32,35.21-16.89,38.47-41.84.39-2.97.36-6,.86-8.94.75-4.4,3.35-7.27,7.95-7.62,4.21-.32,7.04,1.89,8.21,5.84,5.34,17.98,9.07,36.27,6.89,55.1-1.25,10.76-7.84,18.97-15.99,25.7-13.31,11.01-28.96,16.01-46,17.13-20.53,1.36-40.35-3.38-60.35-6.86-14.72-2.56-29.59-5.25-44.47-5.74-43.92-1.45-75.09,23.39-84.68,66.26-4.52,20.19-3.49,40.33.84,60.42.56,2.58.84,5.21,1.26,7.82h-49.99Z"/>
  <path class="cls-1" d="M1543.99,2258.99c-7.31-29.16-9.35-58.48-1.39-87.79,8.2-30.15,27.39-51.22,55.5-64.37,29.26-13.7,60.36-18.49,92.32-17.88,16.28.31,32.55,1.99,48.8,3.26,13.96,1.09,27.91,2.49,41.78-.51,24.63-5.32,35.21-16.89,38.47-41.84.39-2.97.36-6,.86-8.94.75-4.4,3.35-7.27,7.95-7.62,4.21-.32,7.04,1.89,8.21,5.84,5.34,17.98,9.07,36.27,6.89,55.1-1.25,10.76-7.84,18.96-15.99,25.7-13.31,11.01-28.96,16.01-46,17.13-20.53,1.36-40.35-3.38-60.35-6.86-14.72-2.56-29.59-5.25-44.47-5.74-43.92-1.45-75.09,23.4-84.68,66.27-4.52,20.19-3.49,40.33.84,60.42.56,2.58.84,5.21,1.26,7.82h-49.99Z"/>
  <path class="cls-1" d="M242.18,2258.99c-7.31-29.16-9.35-58.48-1.39-87.79,8.2-30.15,27.39-51.22,55.5-64.37,29.26-13.7,60.36-18.49,92.32-17.88,16.28.31,32.55,1.99,48.8,3.26,13.96,1.09,27.91,2.48,41.78-.51,24.63-5.32,35.21-16.89,38.47-41.84.39-2.97.36-6,.86-8.94.75-4.4,3.35-7.27,7.95-7.62,4.21-.32,7.04,1.89,8.21,5.84,5.34,17.98,9.07,36.27,6.89,55.1-1.25,10.76-7.84,18.96-15.99,25.7-13.31,11.01-28.96,16.01-46,17.13-20.53,1.36-40.35-3.38-60.35-6.86-14.72-2.56-29.59-5.25-44.47-5.74-43.92-1.45-75.09,23.39-84.68,66.27-4.52,20.19-3.49,40.33.84,60.42.56,2.58.84,5.21,1.26,7.82h-49.99Z"/>
  <path class="cls-1" d="M892.08,2258.99c-1.65-12.53-3.53-25.02-4.88-37.58-1.73-16.04-.16-31.93,3.77-47.53,7.94-31.45,27.2-53.49,56.41-67.13,29.28-13.67,60.37-18.4,92.32-17.79,16.28.31,32.54,2.01,48.79,3.28,14.62,1.15,29.22,2.5,43.73-.97,22.88-5.47,33.46-17.4,36.03-40.6.37-3.31.85-6.6,1.35-9.89.7-4.55,3.41-7.2,7.98-7.48,4.22-.26,7.03,2.12,8.12,6.03,5.12,18.35,9.07,36.91,6.43,56.11-1.34,9.74-7.3,17.05-14.36,23.33-13.22,11.75-29.18,16.98-46.53,18.26-17.44,1.29-34.45-1.96-51.54-4.92-17.67-3.07-35.43-6.67-53.27-7.55-39.85-1.97-69.25,17.82-81.79,53.98-3.24,9.33-5.2,19.33-6.17,29.17-1.71,17.36.39,34.55,5.59,51.29h-51.99Z"/>
  <path class="cls-1" d="M326.16,2258.99c-.2-14.94.04-29.91-.69-44.82-1.5-30.68,23.61-50.61,49.14-49.44,22.91,1.05,45.91.15,68.87.24,28.47.11,47.88,18.83,48.18,47.24.16,15.59-.97,31.19-1.52,46.78h-163.98Z"/>
  <path class="cls-1" d="M1627.97,2258.99c-.2-14.94.04-29.91-.69-44.82-1.5-30.68,23.6-50.61,49.14-49.44,22.91,1.05,45.91.15,68.87.24,28.47.11,47.88,18.83,48.18,47.24.16,15.59-.97,31.19-1.52,46.78h-163.98Z"/>
  <path class="cls-1" d="M2279.88,2258.99c-.2-14.94.04-29.91-.69-44.82-1.5-30.68,23.61-50.61,49.14-49.44,22.91,1.05,45.91.15,68.87.24,28.47.11,47.88,18.83,48.18,47.24.16,15.59-.97,31.19-1.52,46.78h-163.98Z"/>
  <path class="cls-1" d="M978.07,2258.99c-.54-17.59-2.31-35.25-1.32-52.76,1.34-23.52,21.1-40.95,44.76-41.21,25.31-.27,50.63-.3,75.94,0,24.96.3,44.06,19.31,44.8,44.35.36,12.31.26,24.64-.03,36.95-.1,4.23-1.41,8.44-2.17,12.66h-161.98Z"/>
  <path class="cls-1" d="M.21,1803.2c22.93.14,45.86-.06,68.77.62,7.81.23,16.17,1.33,23.19,4.47,16.08,7.18,25.33,20.3,26.17,38.14.64,13.59.49,27.26.03,40.87-.72,21.11-17.73,40.68-38.51,41.66-26.5,1.26-53.1.22-79.66.18,0-41.98,0-83.96,0-125.94Z"/>
  <path class="cls-1" d="M.21,1139.5c22.93.14,45.86-.06,68.77.62,7.81.23,16.17,1.33,23.19,4.47,16.08,7.18,25.33,20.3,26.17,38.14.64,13.59.49,27.26.03,40.87-.72,21.11-17.73,40.68-38.51,41.66-26.5,1.26-53.1.22-79.66.18,0-41.98,0-83.96,0-125.94Z"/>
  <path class="cls-1" d="M.21,475.8c24.92-.07,49.85-.54,74.76-.1,24.24.43,43,19.89,43.5,44.32.24,11.96.18,23.92.02,35.88-.35,25.85-19.28,45.11-45.5,45.63-22.59.45-45.2.11-67.79.13-1.66,0-3.32.05-4.98.08v-125.94Z"/>
  <path class="cls-1" d="M2487.85.01c-3.75,20.51-22.03,39.62-42.75,43.82-7.44,1.51-15.18,2.09-22.78,2.11-62.92.16-125.84-.16-188.76.28-14.6.1-25.45-5.67-32.61-17.35-5.48-8.93-8.78-19.19-13.05-28.86,99.99,0,199.97,0,299.96,0Z"/>
  <path class="cls-1" d="M1835.94.01c-3.75,20.51-22.03,39.62-42.75,43.82-7.44,1.51-15.18,2.09-22.78,2.11-62.92.16-125.84-.16-188.76.28-14.6.1-25.45-5.67-32.61-17.35-5.48-8.93-8.78-19.19-13.05-28.86,99.99,0,199.97,0,299.96,0Z"/>
  <path class="cls-1" d="M534.13.01c-3.75,20.51-22.03,39.62-42.75,43.82-7.44,1.51-15.18,2.09-22.78,2.11-62.92.16-125.84-.16-188.76.28-14.6.1-25.45-5.67-32.61-17.35-5.48-8.93-8.78-19.19-13.05-28.86,99.99,0,199.97,0,299.96,0Z"/>
  <path class="cls-1" d="M1186.04.01c-2.27,5.15-4.11,10.54-6.88,15.4-10.68,18.69-26.86,28.94-48.44,30.37-3.64.24-7.31.25-10.96.25-63.16.01-126.31-.2-189.47.18-13.29.08-23.37-4.95-30.67-15.23-4.74-6.69-7.99-14.45-11.74-21.82-1.49-2.93-2.54-6.09-3.79-9.14,100.65,0,201.3,0,301.96,0Z"/>
  <path class="cls-1" d="M2899.79,1681.25c-21.63-13.17-36.41-31.95-44.63-55.72-11.32-32.73-17.68-66.28-13.36-101.04,4.44-35.75,21.82-63.06,54.31-79.91,1.13-.59,2.45-.82,3.68-1.22v67.97c-.51.36-1.33.63-1.48,1.1-5.63,17.47-8.25,35.42-5.93,53.62,1.43,11.21,4.87,22.17,7.41,33.24v81.96Z"/>
  <path class="cls-1" d="M2899.79,1017.55c-21.63-13.17-36.41-31.95-44.63-55.72-11.32-32.73-17.68-66.28-13.36-101.04,4.44-35.75,21.82-63.06,54.31-79.91,1.13-.59,2.45-.82,3.68-1.22v67.97c-.51.36-1.33.63-1.48,1.1-5.63,17.47-8.25,35.42-5.93,53.62,1.43,11.21,4.87,22.17,7.41,33.24v81.96Z"/>
  <path class="cls-1" d="M2899.79,351.85c-13.72-6.34-23.49-17.1-31.81-29.22-11.11-16.19-16.95-34.57-20.99-53.57-4.79-22.53-8.14-45.13-5.77-68.33,3.87-37.81,20.85-66.84,55.12-84.78,1.17-.61,2.3-1.32,3.44-1.98v67.97c-1.63,4.93-3.66,9.77-4.82,14.81-5.84,25.49-3.83,50.55,4.82,75.14v79.96Z"/>
  <path class="cls-1" d="M2845.8,2258.99c-1.64-12.5-3.56-24.98-4.86-37.52-1.73-16.69-.05-33.16,4.28-49.37,7.04-26.37,22.36-46.39,45.92-60.14,2.86-1.67,5.77-3.27,8.65-4.9v67.97c-.46.44-1.18.81-1.35,1.35-8.74,27.47-9.01,55.01-.65,82.62h-51.99Z"/>
  <path class="cls-1" d="M1436,.01c-11.39,3.24-22.61,7.49-34.21,9.51-26.74,4.65-53.71,3.96-80.67,1.23-17.52-1.78-35.15-5.17-52.66-.78-7.31,1.83-14.57,4.71-21.18,8.35-10.74,5.91-15.31,16.24-17.09,27.93-.7,4.61-1.23,9.24-1.79,13.87-.54,4.47-2.68,7.57-7.39,8.06-5.18.53-8.01-2.22-9.25-7.1-4.76-18.76-9.24-37.54-5.76-57.13.23-1.27.02-2.62.02-3.93,76.66,0,153.31,0,229.97,0Z"/>
  <path class="cls-1" d="M2739.81.01c-17.6,7.7-36.32,10.47-55.23,11.96-26.01,2.06-51.86-.29-77.76-2.78-11.48-1.1-23.38-.99-34.75.74-25.32,3.86-37.13,17.12-39.99,42.4-.37,3.3-.42,6.68-1.23,9.87-1.01,3.96-3.91,6.08-8.12,6.05-3.74-.03-6.51-1.74-7.52-5.38-5.69-20.61-10.62-41.31-5.37-62.87h229.97Z"/>
  <path class="cls-1" d="M2087.91.01c-17.6,7.7-36.32,10.46-55.23,11.97-25.67,2.05-51.2-.28-76.77-2.64-11.82-1.09-24.04-1.14-35.74.61-25.32,3.8-37.14,17.11-39.99,42.38-.37,3.3-.42,6.68-1.23,9.87-1.01,3.96-3.91,6.08-8.12,6.05-3.74-.03-6.51-1.74-7.52-5.38-5.69-20.61-10.62-41.31-5.37-62.87h229.97Z"/>
  <path class="cls-1" d="M786.1.01c-17.6,7.7-36.32,10.47-55.23,11.96-26.01,2.06-51.87-.29-77.76-2.78-11.48-1.1-23.38-.99-34.75.74-25.32,3.86-37.13,17.12-39.99,42.4-.37,3.3-.42,6.68-1.23,9.87-1.01,3.96-3.91,6.08-8.12,6.05-3.74-.03-6.51-1.74-7.52-5.38-5.69-20.61-10.62-41.31-5.37-62.87h229.97Z"/>
  <path class="cls-1" d="M2899.79,45.99c-5.31.02-10.64-.28-15.92.11-13.28.99-23.31-4.91-30.58-15.18-4.73-6.68-7.97-14.43-11.71-21.79-1.49-2.93-2.53-6.08-3.78-9.13,20.47,0,40.95,0,61.99,0v45.98Z"/>
  <path class="cls-1" d="M134.19.01c-17.47,7.67-36.06,10.5-54.84,11.91-21.14,1.59-42.3,1.19-63.39-1.46-5.19-.65-10.5-.33-15.75-.46V.01h133.98Z"/>
  <path class="cls-1" d="M530.13,2258.99c-.07-4.35,1.16-8.1,6.19-8.14,5.23-.04,6.2,3.75,5.81,8.14h-12Z"/>
  <path class="cls-1" d="M1180.04,2258.99c.48-1.23.65-2.75,1.49-3.62,1.7-1.75,3.58-4.01,5.73-4.48,3.51-.76,5.07,2.28,6.08,5.23.32.93.47,1.91.7,2.87h-14Z"/>
  <path class="cls-1" d="M1831.94,2258.99c-.07-4.35,1.16-8.1,6.19-8.14,5.23-.04,6.2,3.75,5.81,8.14h-12Z"/>
  <path class="cls-1" d="M2483.85,2258.99c-.07-4.35,1.16-8.1,6.19-8.14,5.23-.04,6.2,3.75,5.81,8.14h-12Z"/>
  <path class="cls-1" d="M2485.62,349.8c-4.77,3.5-9.72,6.79-14.28,10.55-17.06,14.04-37.1,20.63-58.6,23.32-49.43,6.18-96.94-2.23-142.9-20.16-35.11-13.69-58.21-38.89-68.77-75.31-7.46-25.73-12.1-51.81-11.36-78.73,1.33-48.19,24.87-82.04,69.61-99.78,21.28-8.44,43.49-12.44,66.23-13.61,22.35-1.15,44.58.53,66.81,3.01,10.87,1.22,22,1.45,32.91.67,28.55-2.05,43.41-16.94,46.34-45.23.21-1.99.16-4.01.51-5.97.96-5.34,3.94-8.33,8.33-8.4,4.8-.08,7.53,2.81,8.37,7.08,2.5,12.71,5.23,25.42,6.84,38.26,3.05,24.27-9.43,39.86-30,50.16-18.61,9.32-38.53,10.21-58.59,7.28-19.09-2.79-37.92-7.54-57.06-9.8-13.78-1.63-28.09-2.26-41.77-.39-27.17,3.72-46.56,19.86-57.36,44.59-16.21,37.11-13.25,74.35,4.94,109.92,17.09,33.41,46.87,50.05,82.66,56.49,32.85,5.91,65,1.26,96.49-9.01,22.32-7.29,36.95-21.77,42.2-45.06,1.54-6.81,3.18-13.61,4.93-20.37.74-2.88,1.39-5.98,2.98-8.4,1.06-1.62,3.78-3.17,5.58-2.99,1.79.18,3.95,2.25,4.88,4.04,1.01,1.95.93,4.52,1.1,6.84,2.75,37.2,5.9,74.4,3.16,111.75-.53,7.29-1.2,14.67-2.88,21.75-6.85,28.99-32.3,49.4-62.35,49.63-42.32.32-84.64.08-126.97.1-7,0-14-.02-20.99.26-17.63.7-31.15,8.57-40.43,23.63-6.41,10.4-9.86,21.89-11.63,33.78-4.66,31.17-1.67,61.77,8.32,91.63,1.68,5.01,4.15,9.82,6.74,14.45,8.09,14.46,20.75,22.38,37.06,23.85,11.59,1.04,23.29,1.55,34.92,1.25,19.97-.51,39.94-1.6,59.88-2.9,19.52-1.28,33.9-11.37,40.39-29.45,14.26-39.72,12.53-78.4-11.66-114.49-.55-.83-1.48-1.49-1.8-2.38-.95-2.67-3.18-6.65-2.17-7.86,1.74-2.09,5.64-3.66,8.43-3.39,11.9,1.15,23.91,2.21,35.53,4.87,18.99,4.35,31.74,16.64,37.69,35.07,3.25,10.07,5.61,20.59,6.93,31.08,4.35,34.52,5.57,69.05-2.81,103.27-3.12,12.76-8.12,24.64-16.57,34.88-9.79,11.87-22.26,18.85-37.65,20.24-5.96.54-11.96.99-17.95,1-61.65.07-123.3-.24-184.95.24-16.19.13-27.36-6.69-35.67-19.63-9.93-15.47-14.35-32.96-17.02-50.77-7.38-49.14-12.53-98.49-8.13-148.27,1.23-13.89,2.79-27.89,5.87-41.46,7.61-33.55,39.57-55.19,73.62-49.77,19.03,3.03,37.71,8.24,56.69,11.71,35.03,6.41,70.12,8.33,105.02-1.09,16.87-4.55,32.72-11.34,46.42-22.45,12.44-10.08,21.35-22.51,23.96-39.54Z"/>
  <path class="cls-1" d="M531.8,349.83c-4.77,3.52-9.71,6.83-14.28,10.59-17.07,14.04-37.13,20.58-58.62,23.26-49.08,6.12-96.24-2.25-141.97-19.85-35.97-13.84-59.35-39.55-69.94-76.7-7.34-25.75-12.16-51.88-10.91-78.79,2.19-47.19,24.17-80.66,68.7-98.38,20.95-8.34,42.8-12.5,65.18-13.81,22.68-1.32,45.25.31,67.82,2.8,11.2,1.24,22.67,1.58,33.9.77,28.6-2.06,43.3-16.91,46.23-45.34.27-2.65.2-5.4.92-7.92,1.1-3.84,3.99-6.83,7.98-6.11,2.78.5,6.68,2.82,7.44,5.18,5.96,18.49,9.87,37.47,7.03,56.97-1.5,10.31-8.1,18.15-16.03,24.6-13.4,10.89-29.06,15.83-46.11,16.88-20.54,1.26-40.35-3.52-60.36-6.99-15.05-2.61-30.28-5.17-45.5-5.65-50.36-1.6-74.85,31.34-82.57,63.89-7.64,32.26-3.9,63.69,11.78,93.07,15.39,28.84,40.68,45.46,71.66,53.14,39.12,9.71,77.43,4.6,114.6-9.8,17.18-6.66,28.44-19.34,33.26-37.34,2.15-8.03,4.07-16.13,6.21-24.16.85-3.2,1.55-6.6,3.21-9.36.96-1.6,3.83-3.1,5.62-2.89,1.79.22,3.87,2.35,4.79,4.17.99,1.97.91,4.53,1.08,6.85,2.75,37.2,5.9,74.4,3.14,111.75-.54,7.29-1.22,14.66-2.91,21.74-6.92,28.99-32.35,49.29-62.43,49.51-41.99.3-83.98.07-125.97.1-7,0-14,.04-20.99.23-18.47.51-32.42,8.69-41.87,24.63-6.05,10.21-9.38,21.38-11.09,32.94-4.62,31.17-1.63,61.77,8.38,91.63,1.58,4.7,3.87,9.21,6.26,13.58,8.13,14.87,20.89,23.15,37.63,24.61,11.59,1.01,23.29,1.53,34.92,1.23,19.97-.52,39.94-1.59,59.88-2.91,19.52-1.3,33.86-11.47,40.32-29.55,14.21-39.74,12.43-78.41-11.79-114.48-.74-1.1-1.7-2.06-2.42-3.17-4.12-6.29-2.32-10.65,5.1-10.43,15.98.48,32.02,1.48,46.95,8.13,13.87,6.17,23.25,16.86,27.85,31.06,3.26,10.07,5.65,20.57,7.03,31.06,4.6,34.84,5.77,69.7-2.67,104.24-3.12,12.76-8.15,24.64-16.61,34.86-9.82,11.85-22.3,18.79-37.7,20.15-5.97.53-11.96.98-17.95.99-61.65.07-123.3-.24-184.95.23-16.22.12-27.33-6.8-35.61-19.74-9.9-15.48-14.3-32.98-16.97-50.79-7.38-49.15-12.51-98.49-8.11-148.27,1.23-13.89,2.8-27.89,5.89-41.46,7.62-33.48,39.63-55.06,73.72-49.63,18.71,2.98,37.08,8,55.71,11.51,32.31,6.08,64.76,8.15,97.26,1.19,16.07-3.44,31.36-8.92,45.37-17.66,14.19-8.86,25.42-20.39,32.01-35.99,1.25-2.97,2.16-6.08,3.22-9.12-.57-.42-1.15-.85-1.72-1.27Z"/>
  <path class="cls-1" d="M1833.52,349.89c-4.78,3.53-9.71,6.85-14.3,10.61-17.08,14.02-37.15,20.52-58.64,23.19-49.08,6.09-96.24-2.28-141.95-19.91-35.96-13.86-59.3-39.62-69.87-76.76-7.33-25.75-12.12-51.88-10.87-78.8,2.18-46.75,23.87-80.13,67.86-97.96,21.51-8.72,44.04-12.95,67.12-14.17,22.35-1.19,44.56.71,66.82,2.79,13.48,1.26,27.46,1.68,40.74-.49,25.32-4.15,35.96-16.74,39.11-42.11.41-3.3.32-6.72,1.15-9.9,1.02-3.87,4.05-6.78,8.02-6.03,2.77.53,6.62,2.89,7.38,5.27,5.92,18.5,9.86,37.47,6.98,56.98-1.52,10.3-8.15,18.12-16.08,24.57-13.11,10.66-28.46,15.62-45.14,16.77-20.87,1.44-41.01-3.43-61.35-6.95-15.37-2.66-30.95-5.24-46.5-5.62-49.52-1.23-73.87,31.57-81.51,63.94-7.52,31.9-3.89,62.98,11.38,92.17,15.36,29.35,40.81,46.2,72.15,53.98,39.11,9.71,77.43,4.59,114.59-9.84,17.18-6.67,28.41-19.37,33.22-37.37,2.06-7.71,4-15.46,6-23.19.58-2.25,1.22-4.49,1.79-6.75.98-3.84,2.69-7.11,7.31-6.63,4.16.43,5.02,3.8,5.4,7.3.11.99.24,1.99.31,2.98,2.88,38.2,5.97,76.39,3.17,114.74-1.16,15.84-4.1,31.08-14.39,43.88-13.32,16.58-30.55,25.36-51.94,25.39-41.99.06-83.97.01-125.96.03-6.66,0-13.33.04-19.99.23-18.47.52-32.42,8.72-41.85,24.66-6.05,10.21-9.35,21.39-11.08,32.94-4.61,30.83-1.62,61.11,8.04,90.69,1.64,5.02,4.08,9.85,6.62,14.51,8.11,14.88,20.89,23.14,37.64,24.6,11.59,1.01,23.29,1.53,34.92,1.23,19.97-.52,39.94-1.59,59.88-2.91,19.52-1.3,33.85-11.49,40.3-29.56,14.2-39.74,12.42-78.41-11.8-114.47-.74-1.1-1.7-2.06-2.42-3.17-4.11-6.29-2.31-10.64,5.12-10.42,15.98.48,32.01,1.49,46.95,8.14,13.87,6.18,23.24,16.86,27.85,31.07,3.26,10.07,5.65,20.57,7.03,31.06,4.6,34.84,5.77,69.69-2.67,104.24-3.12,12.76-8.15,24.64-16.61,34.86-9.82,11.85-22.3,18.79-37.7,20.15-5.97.53-11.96.98-17.95.99-61.65.07-123.3-.24-184.94.23-16.21.12-27.33-6.79-35.61-19.72-9.91-15.48-14.22-32.98-17-50.78-8.79-56.17-10.84-112.63-5.83-169.29.58-6.6,1.81-13.2,3.34-19.66,8.05-34.11,39.61-55.91,74.17-50.41,18.7,2.98,37.07,8.02,55.7,11.51,32.31,6.06,64.76,8.12,97.26,1.13,16.06-3.45,31.36-8.94,45.35-17.7,14.18-8.88,25.39-20.42,31.95-36.05,1.24-2.96,2.11-6.07,3.15-9.11-.6-.37-1.2-.73-1.8-1.1Z"/>
  <path class="cls-1" d="M1182.59,349.83c-4.77,3.56-9.69,6.94-14.29,10.71-17.1,13.99-37.16,20.48-58.66,23.16-49.08,6.11-96.25-2.28-141.95-19.92-35.91-13.86-59.38-39.53-69.78-76.81-8.1-29.03-13.61-58.35-10.11-88.71,4.5-39.14,23.68-67.9,59.79-84.71,29.62-13.79,61.08-18.4,93.38-17.7,15.96.35,31.88,2.08,47.81,3.32,14.29,1.11,28.57,2.43,42.77-.86,23.56-5.47,34.1-17.29,36.75-41.07.4-3.64.83-7.3,1.64-10.86.93-4.07,4.05-6.72,7.95-5.98,2.78.53,6.7,2.91,7.42,5.28,5.71,18.89,9.86,38.15,6.58,58.01-1.53,9.23-7.51,16.24-14.39,22.25-13.33,11.64-29.29,16.79-46.66,18.02-17.12,1.22-33.82-1.91-50.58-4.83-17.03-2.97-34.1-6.21-51.3-7.5-10.76-.8-22.12.43-32.59,3.13-22.68,5.84-38.18,21.14-48.17,41.9-33.65,69.96,10.25,154.48,86.71,167.1,33.62,5.55,66.35,1.32,98.41-9.51,21.53-7.27,35.65-21.38,40.77-43.92,1.77-7.78,3.77-15.52,5.84-23.23.68-2.54,1.47-5.24,2.96-7.32,2.36-3.3,7.16-2.91,9.12.67,1.07,1.96,1.65,4.39,1.76,6.64,1.48,31.59,3.27,63.18,4.01,94.8.29,12.23-.86,24.71-3.09,36.75-5.92,31.95-31.74,53.14-64.25,53.31-41.99.21-83.98.05-125.96.07-6.66,0-13.33.04-19.99.24-18.47.55-32.45,8.78-41.8,24.74-7.58,12.93-10.89,27.22-12.16,41.87-2.24,25.76-.12,51.23,7.41,76.09,1.35,4.45,2.96,8.84,4.8,13.11,8.58,19.88,23.44,30.7,45.36,32.09,31.36,1.98,62.62.14,93.8-2.62,18.68-1.65,30.92-13.21,37.87-30.12,7.64-18.56,9.12-38.1,7.35-57.91-1.93-21.67-8.41-41.62-22.28-58.89-4.67-5.81-2.43-10.51,5.04-10.3,15.98.46,32,1.49,46.95,8.1,15.01,6.64,24.62,18.4,28.9,33.81,3.45,12.44,5.76,25.31,7.26,38.15,3.56,30.57,3.75,61.16-3.05,91.42-3.02,13.45-7.96,26.1-16.68,37.01-9.84,12.32-22.52,19.55-38.3,20.99-5.96.55-11.96.99-17.95,1-61.65.07-123.3-.25-184.95.24-16.21.13-27.32-6.74-35.67-19.62-8.49-13.09-13.19-27.79-15.47-42.94-3.55-23.67-6.35-47.49-8.4-71.34-2.65-30.9-2.6-61.91,0-92.83,1.03-12.22,2.28-24.63,5.44-36.42,8.44-31.44,39.75-51.79,71.93-46.91,15.76,2.39,31.24,6.6,46.87,9.88,25.86,5.43,51.96,8.45,78.41,6.88,25.93-1.53,50.68-7.5,73.18-21.04,15.9-9.57,27.86-22.59,34.38-40.2.66-1.78.95-3.7,1.41-5.56-.52-.38-1.04-.76-1.56-1.14Z"/>
  <path class="cls-1" d="M531.87,1014.47c-3.99,2.95-8.17,5.67-11.94,8.88-19.88,16.96-43.63,23.81-68.96,25.97-44.21,3.76-86.95-3.56-128.52-18.45-40.69-14.57-66.6-42.6-77.14-84.77-6-24.01-10.82-48.21-9.05-73.02.87-12.17,2.97-24.53,6.56-36.17,7.74-25.05,24.4-43.13,47.46-55.44,22.1-11.79,45.95-17.2,70.65-19.9,28.74-3.14,57.21.06,85.7,3.05,13.06,1.37,25.96.99,38.59-2.82,17.81-5.37,29.53-16.25,31.57-35.66.42-3.97,1.05-7.91,1.45-11.88.48-4.78,2.39-8.33,7.58-9.09,4.76-.69,7.7,1.13,9.34,6.94,4.72,16.73,8.16,33.73,6.72,51.22-1.19,14.47-10.1,24.39-21.49,32.08-16.99,11.46-36.22,15.27-56.25,13.17-16.85-1.77-33.49-5.41-50.26-7.91-12.82-1.91-25.69-4.31-38.59-4.79-54.9-2.04-80.97,35.72-86.81,74.76-2.99,20-1.44,39.92,4.41,59.32,13,43.13,43.17,67.75,86.04,77.34,36.85,8.24,72.91,2.89,107.9-10.08,18.29-6.78,30.56-19.72,35.41-39.05,1.94-7.74,3.92-15.47,5.94-23.2.76-2.89,1.14-6.08,2.68-8.51,1.24-1.96,4.06-4.21,6-4.05,1.89.15,4.06,2.92,5.15,5.04,1,1.94.84,4.54,1,6.86,2.61,36.87,5.85,73.73,3.04,110.74-.58,7.61-1.27,15.34-3.11,22.71-7.41,29.55-33.04,49-64.88,49.18-40.98.24-81.97.05-122.95.07-7.66,0-15.33.09-22.99.26-16.17.35-28.7,7.45-37.88,20.66-7.99,11.5-11.71,24.62-13.7,38.21-4.11,28.11-1.28,55.78,6.22,83.06.88,3.2,2.18,6.29,3.31,9.41,8.74,24.08,26.03,36.35,51.53,36.67,16.98.21,33.98-.12,50.96-.46,9.65-.19,19.3-.93,28.95-1.37,26.11-1.17,43.24-13.14,49.81-38.28,9.97-38.2,8.2-75.29-16.54-108.53-2.03-2.73-4.67-5.85-2.04-8.83,1.6-1.81,5.34-2.69,7.97-2.44,11.9,1.13,23.96,1.85,35.56,4.5,18.5,4.23,31.42,16.03,37.47,34.04,3.47,10.33,5.89,21.2,7.28,32.02,4.44,34.5,5.84,69.09-2.84,103.21-2.19,8.61-5.52,17.16-9.7,25.01-10.36,19.45-27.09,29.66-49.11,31.06-3.99.25-7.99.22-11.99.23-62.31.01-124.62-.28-186.92.21-15.45.12-26.07-6.37-34.23-18.41-8.76-12.93-13.39-27.59-15.92-42.74-3.23-19.35-5.64-38.85-7.98-58.34-3.98-33.15-4.75-66.42-1.98-99.71,1.02-12.26,2.53-24.52,4.69-36.62,7.29-40.9,44.99-60.2,80.41-53.34,18.94,3.67,37.63,8.67,56.62,12.01,34.44,6.05,68.9,7.09,102.92-2.99,19.41-5.75,37.29-14.34,51.44-29.34,8.32-8.81,14.12-19.02,15.43-31.7Z"/>
  <path class="cls-1" d="M2486.93,1013.47c-5.34,3.95-9.53,6.67-13.29,9.88-19.88,16.96-43.63,23.81-68.96,25.97-44.21,3.76-86.95-3.56-128.52-18.45-40.69-14.57-66.6-42.6-77.14-84.77-6-24.01-10.82-48.21-9.05-73.02.87-12.17,2.97-24.53,6.56-36.17,7.74-25.05,24.4-43.13,47.46-55.44,22.1-11.79,45.95-17.2,70.65-19.9,28.74-3.14,57.21.05,85.7,3.05,13.06,1.37,25.96.99,38.59-2.82,17.81-5.37,29.53-16.25,31.57-35.66.42-3.97,1.04-7.91,1.45-11.88.48-4.78,2.39-8.33,7.58-9.08,4.76-.69,7.7,1.12,9.34,6.94,4.72,16.73,8.16,33.73,6.72,51.22-1.19,14.47-10.1,24.39-21.49,32.08-16.99,11.46-36.22,15.27-56.25,13.17-16.84-1.77-33.49-5.41-50.26-7.91-12.82-1.91-25.69-4.31-38.59-4.79-54.9-2.04-80.97,35.72-86.81,74.76-2.99,20-1.44,39.92,4.41,59.32,13,43.13,43.17,67.75,86.04,77.33,36.85,8.24,72.91,2.89,107.9-10.08,18.29-6.78,30.56-19.72,35.41-39.05,1.94-7.74,3.92-15.47,5.94-23.2.76-2.89,1.14-6.08,2.68-8.51,1.24-1.96,4.06-4.21,6-4.05,1.89.15,4.06,2.92,5.15,5.04,1,1.94.84,4.54,1,6.86,2.61,36.87,5.85,73.73,3.04,110.74-.58,7.61-1.27,15.34-3.11,22.71-7.41,29.55-33.04,49-64.89,49.18-40.98.24-81.97.05-122.95.07-7.66,0-15.33.09-22.99.26-16.17.35-28.7,7.45-37.88,20.66-7.99,11.5-11.71,24.62-13.7,38.21-4.11,28.11-1.28,55.78,6.22,83.06.88,3.2,2.18,6.29,3.31,9.41,8.74,24.08,26.03,36.35,51.53,36.66,16.98.21,33.98-.12,50.96-.46,9.65-.19,19.3-.94,28.95-1.37,26.11-1.17,43.24-13.14,49.8-38.28,9.97-38.21,8.2-75.29-16.54-108.53-2.03-2.73-4.67-5.85-2.04-8.83,1.6-1.81,5.34-2.69,7.97-2.44,11.9,1.13,23.96,1.85,35.56,4.5,18.5,4.23,31.42,16.04,37.47,34.04,3.47,10.33,5.89,21.2,7.28,32.02,4.44,34.5,5.84,69.09-2.84,103.21-2.19,8.61-5.52,17.16-9.7,25.01-10.36,19.45-27.09,29.66-49.11,31.06-3.99.25-7.99.22-11.99.23-62.31.01-124.62-.28-186.92.21-15.45.12-26.07-6.37-34.23-18.41-8.76-12.93-13.39-27.59-15.92-42.74-3.23-19.35-5.64-38.85-7.98-58.34-3.98-33.15-4.75-66.42-1.98-99.71,1.02-12.26,2.53-24.52,4.69-36.62,7.29-40.9,44.99-60.2,80.41-53.34,18.94,3.67,37.63,8.67,56.62,12.01,34.44,6.05,68.9,7.09,102.92-2.99,19.41-5.75,37.25-14.38,51.45-29.33,8.78-9.24,14.49-20.02,16.77-32.71Z"/>
  <path class="cls-1" d="M1865.84,423.61c5.04-3.73,10.23-7.27,15.11-11.21,16.04-12.96,34.69-19.61,54.8-22.33,51.1-6.91,100.25,1.4,147.71,20.41,34.7,13.89,57.03,39.39,67.31,75.39,7.35,25.74,12.32,51.84,11.09,78.75-2.18,48.07-24.76,81.85-70.3,99.27-34.32,13.13-69.97,15.57-106.21,12.79-13.61-1.04-27.18-2.93-40.81-3.41-9.23-.32-18.77.03-27.75,2.02-23.7,5.25-33.74,17.16-36.56,41.23-.39,3.3-.39,6.68-1.1,9.91-.87,3.95-3.71,6.44-7.74,6.7-4.09.26-7.08-1.89-8.23-5.88-5.29-18.33-9.15-36.93-6.68-56.11,1.1-8.51,6.13-15.39,12.18-21.34,12.67-12.45,28.34-18.41,45.7-20.1,19.11-1.86,37.78,1.55,56.52,4.89,17.65,3.15,35.47,6.64,53.31,7.21,43,1.38,74.21-23.48,83.41-65.27,6.41-29.14,3.66-57.76-8.87-84.91-16.41-35.58-45.97-54.4-83.29-61.65-34.15-6.63-67.64-1.97-100.32,9.16-21.07,7.18-35.12,21.05-40.26,43.19-1.65,7.13-3.4,14.24-5.28,21.31-.85,3.19-1.62,6.58-3.31,9.34-2.66,4.36-8.33,3.65-10.11-1.13-.91-2.45-1.21-5.2-1.37-7.85-2.25-37.88-6.36-75.71-2.78-113.72.65-6.94,1.32-13.99,3.09-20.7,7.59-28.73,32.44-47.95,62.41-48.15,46.31-.31,92.62-.24,138.93-.4,4.65-.02,9.32-.24,13.95-.7,14.19-1.38,25-8.54,33.07-20.01,6.43-9.13,10.2-19.46,12.32-30.32,6.39-32.75,3.54-64.96-6.51-96.59-1.8-5.66-4.56-11.1-7.51-16.28-7.76-13.66-19.65-21.81-35.28-23.16-13.9-1.21-27.93-1.78-41.88-1.46-18.96.43-37.93,1.58-56.84,3.13-17.9,1.47-30.28,11.63-37.48,27.6-3.37,7.49-5.85,15.68-7.02,23.8-4.87,33.97-1.88,66.46,20.06,94.93,1.59,2.06,2.9,6.11,1.91,7.89-1.05,1.89-5.1,3.21-7.66,2.96-11.9-1.16-23.91-2.12-35.55-4.69-19.43-4.28-32.36-16.74-38.45-35.55-3.06-9.44-5.29-19.29-6.58-29.12-4.27-32.48-5.52-65.02.87-97.45,2.53-12.83,6.47-25.15,13.73-36.17,9.87-15,23.29-24.78,41.53-26.21,13.26-1.04,26.6-1.36,39.9-1.38,54.98-.08,109.95.3,164.93,0,14.06-.08,24.28,5.6,32.26,16.47,8.04,10.94,12.78,23.44,15.46,36.52,3.2,15.63,6.11,31.4,7.67,47.25,2.51,25.49,4.53,51.07,5.44,76.66.93,25.97-.77,51.96-5.67,77.55-7.85,40.97-42.28,62.94-84.18,54.15-18.88-3.96-37.62-8.79-56.64-11.89-34.83-5.68-69.64-6.3-103.77,4.84-17.63,5.75-33.82,14.02-46.8,27.65-8.38,8.8-14.23,19.01-15.93,32.14Z"/>
  <path class="cls-1" d="M2486.59,1677.41c-4.84,3.57-9.25,6.46-13.24,9.84-19.92,16.93-43.7,23.67-69.03,25.79-43.87,3.67-86.29-3.6-127.57-18.24-41.1-14.58-67.29-42.78-77.84-85.37-5.87-23.69-10.67-47.56-8.95-72.04.86-12.18,2.86-24.54,6.38-36.21,7.59-25.1,24.12-43.33,47.11-55.75,22.04-11.9,45.9-17.39,70.59-20.13,28.73-3.18,57.22-.12,85.71,2.93,13.06,1.4,25.94,1.08,38.61-2.6,18.3-5.32,30.18-16.39,32.23-36.21.41-3.97.93-7.93,1.55-11.88.69-4.4,3.12-7.41,7.69-7.93,4.72-.54,7.48,2.12,8.81,6.42,5.38,17.31,8.81,35.02,6.65,53.12-1.6,13.45-10.47,22.82-21.33,30.04-17.38,11.56-36.92,15.41-57.28,12.94-20.13-2.44-40.05-6.55-60.08-9.82-15.15-2.48-30.31-4.11-45.72-1.82-31.48,4.67-51.54,23.11-62.98,51.84-8.11,20.38-8.75,41.71-5.38,62.99,8.91,56.29,48.19,92.45,105.04,98.23,29.73,3.02,58.43-1.24,86.63-10.2,22.28-7.08,37.38-21.14,42.68-44.57,1.54-6.81,3.27-13.58,5.05-20.34.85-3.2,1.56-6.59,3.22-9.36.99-1.65,3.83-3.29,5.61-3.08,1.78.22,3.71,2.51,4.76,4.36.92,1.62.81,3.87.96,5.85,2.98,38.19,6.08,76.39,3.15,114.73-.53,6.95-1.32,13.98-3.05,20.71-7.58,29.57-33.07,48.8-65.06,48.97-39.65.21-79.31.04-118.96.07-8.66,0-17.32.15-25.99.24-17.01.17-29.97,7.67-39.33,21.7-7.18,10.76-10.84,22.89-12.72,35.45-4.67,31.17-1.62,61.74,8.25,91.65.52,1.58,1.2,3.11,1.81,4.65,8.77,22.23,25.24,33.76,48.99,34.48,14.31.44,28.65.33,42.97,0,13.65-.31,27.29-1.15,40.93-1.87,23.16-1.21,39.59-12.58,46.25-34.67,11.78-39.08,9.98-76.94-14.78-111.45-.97-1.35-2.17-2.61-2.82-4.1-1.8-4.15-.06-7.59,4.59-7.66,19.81-.3,39.37,1.13,56.77,12.12,9.99,6.31,16.61,15.6,20.06,26.61,3.17,10.1,5.66,20.56,7.05,31.05,4.61,34.84,5.83,69.7-2.7,104.22-1.51,6.1-3.59,12.15-6.15,17.9-11.14,25.02-30.37,38.05-57.97,38.07-65.98.05-131.96-.03-197.93.09-8.96.02-16.11-3.54-22.4-9.38-8.8-8.17-13.72-18.68-17.64-29.77-6.37-18.03-8.88-36.84-11.16-55.68-3.77-31.09-7.26-62.26-5.98-93.61.88-21.58,2.46-43.26,5.71-64.59,6.11-40.08,41.1-63.76,81.1-55.92,18.61,3.65,36.99,8.49,55.64,11.8,36.81,6.53,73.54,7.4,109.6-4.77,17.26-5.83,33.01-14.21,45.66-27.65,8.92-9.47,14.75-20.8,16.18-32.22Z"/>
  <path class="cls-1" d="M532.12,1677.92c-3.97,2.95-8.12,5.69-11.87,8.89-19.86,16.95-43.54,24.01-68.89,26.17-44.55,3.8-87.62-3.51-129.48-18.65-40.28-14.57-65.92-42.42-76.46-84.18-6.14-24.33-10.62-48.82-9.33-74.02,2.37-46.26,23.71-79.5,67.4-97.19,31.49-12.75,64.4-16.27,98-14.54,15.29.79,30.54,2.48,45.78,3.99,12.39,1.23,24.62.83,36.65-2.54,18.72-5.25,30.94-16.38,33-36.66.37-3.64.95-7.26,1.4-10.89.6-4.84,2.96-8.21,8.04-8.69,4.75-.45,7.35,2.4,8.67,6.65,5.25,17,8.54,34.37,6.67,52.15-1.47,13.92-10.47,23.51-21.64,30.91-17.08,11.33-36.32,15.24-56.32,12.88-20.46-2.42-40.71-6.64-61.07-9.94-15.15-2.45-30.31-4.03-45.72-1.73-29.34,4.37-48.98,21-60.93,47.42-9.81,21.69-10.83,44.61-7.14,67.61,9.07,56.38,48.19,92.22,105.23,98.02,29.39,2.99,57.73-1.32,85.67-9.98,23.2-7.19,38.4-21.88,43.81-45.99,1.45-6.49,3.04-12.96,4.68-19.41.73-2.9,1.16-6.11,2.77-8.47,1.27-1.87,4.11-3.57,6.3-3.62,1.52-.04,3.55,2.61,4.55,4.48.89,1.65.77,3.88.93,5.86,2.92,38.19,6.04,76.38,3.17,114.73-1.05,14.07-3.3,27.8-11.53,39.8-13.7,19.95-32.89,29.57-56.86,29.65-39.99.14-79.97.03-119.96.05-8.33,0-16.66.13-24.99.24-16.59.23-29.35,7.46-38.66,21.07-7.71,11.27-11.45,24.05-13.35,37.3-4.23,29.46-1.52,58.44,7.31,86.85.69,2.22,1.49,4.41,2.3,6.59,8.76,23.57,25.78,35.78,50.87,36.17,16.65.26,33.31-.04,49.96-.38,10.32-.21,20.63-.95,30.95-1.45,25.08-1.2,41.43-12.09,48.39-35.94,11.31-38.76,9.45-76.37-15.32-110.46-.78-1.08-1.73-2.07-2.31-3.25-2.29-4.64-.65-7.68,4.48-8.44.98-.15,2.01-.22,2.99-.1,11.87,1.42,23.95,1.96,35.56,4.54,18.94,4.21,32.01,16.22,38.11,34.64,3.32,10.04,5.65,20.57,7.02,31.06,4.55,34.84,5.93,69.75-2.88,104.2-2.2,8.61-5.63,17.12-9.86,24.95-10.28,19.04-26.78,29.07-48.38,30.57-3.98.28-7.99.25-11.99.25-62.65.01-125.29-.24-187.94.2-14.61.1-24.83-6.02-32.88-17.2-7.52-10.44-12.32-22.3-14.58-34.76-3.97-21.92-7.23-43.98-9.98-66.09-4.15-33.46-4.97-67.08-2.15-100.7,1.03-12.26,2.51-24.52,4.62-36.63,7.28-41.67,45.67-60.79,81.08-53.65,18.59,3.75,36.98,8.5,55.64,11.81,34.78,6.18,69.57,7.22,103.9-3.05,19.06-5.7,36.63-14.2,50.59-28.89,8.37-8.81,14.29-19.02,15.97-32.24Z"/>
  <path class="cls-1" d="M1184.4,1013.13c-5.46,4.1-9.58,6.88-13.35,10.08-19.89,16.91-43.58,23.97-68.94,26.07-45.25,3.75-88.93-3.67-131.32-19.51-38.33-14.32-63.12-40.97-73.66-80.64-7.56-28.47-12.84-57.17-9.27-86.84,4.5-37.46,22.55-65.58,56.74-82.62,21.15-10.54,43.77-15.55,67.11-18.11,28.75-3.15,57.23.03,85.72,3.03,13.07,1.38,25.95.95,38.61-2.77,19.3-5.67,30.55-18.07,32.16-38.55.31-3.98.9-7.95,1.64-11.87.8-4.18,3.71-6.17,7.84-6.31,3.71-.13,6.7,1.46,7.75,5.07,5.59,19.3,10.09,38.9,6.24,59.03-2.01,10.5-9.34,18.27-17.9,24.49-17.87,12.97-38.26,17.27-59.71,14.77-20.14-2.35-40.06-6.53-60.09-9.8-15.49-2.53-30.96-4.14-46.71-1.71-28.52,4.39-47.99,20.46-59.75,46.07-31.41,68.4,8.96,148.93,82.37,164.4,36.6,7.71,72.26,2.77,107.01-9.87,18.73-6.81,31.31-19.79,36.34-39.46,1.65-6.45,3.29-12.89,4.96-19.33,1.01-3.86,1.54-7.98,3.33-11.45,1.15-2.23,4.38-5.03,6.32-4.78,2.11.27,3.9,3.7,5.6,5.93.52.68.34,1.93.4,2.93,2.13,34.57,5.52,69.09,3.91,103.79-.39,8.31-1.01,16.65-2.21,24.87-4.9,33.64-31.76,56.66-66.66,56.9-35.99.25-71.99.04-107.98.07-12,.01-23.99.26-35.99.21-19.19-.09-33.02,8.82-42.51,25.04-7.38,12.63-10.57,26.64-11.84,40.95-2.31,26.1-.09,51.89,7.5,77.09.29.96.59,1.91.91,2.85,10.24,30.25,25.86,42.17,57.74,42.15,26.31-.01,52.63-.95,78.92-2.14,22.27-1.01,38.21-12.33,44.97-33.54,12.58-39.44,10.3-77.48-14.37-112.4-.77-1.09-1.74-2.05-2.39-3.19-2.83-5-1.16-8.6,4.76-8.68,17.43-.24,34.68,1.18,50.67,9,13.7,6.7,22.43,18.05,26.39,32.33,3.45,12.44,5.79,25.31,7.3,38.14,3.58,30.57,4.09,61.22-3.12,91.39-2.3,9.61-5.79,19.21-10.42,27.92-10.32,19.41-27.06,29.76-49.13,31.05-5.65.33-11.33.24-16.99.24-60.32.01-120.65-.37-180.96.25-17.2.18-28.41-7.34-36.83-21.03-8.34-13.57-12.57-28.67-15.16-44.14-7.9-47.1-11.24-94.54-8.69-142.28.83-15.59,2.08-31.22,4.19-46.68,5.62-41.17,44.61-62.69,81.82-54.81,18.23,3.86,36.34,8.35,54.68,11.6,34.43,6.12,68.87,7.25,102.96-2.66,13.84-4.03,26.94-9.64,38.77-17.98,13.14-9.26,23.04-21.1,28.6-36.31.74-2.03.93-4.26,1.76-8.26Z"/>
  <path class="cls-1" d="M1184.5,1676.73c-5.48,4.12-9.53,6.85-13.22,10-19.86,16.91-43.5,24.1-68.86,26.23-45.59,3.84-89.6-3.64-132.25-19.72-37.88-14.28-62.44-40.77-72.93-80.07-7.68-28.79-13.07-57.8-9.31-87.8,4.53-36.16,21.72-63.78,54.55-80.89,21.6-11.25,44.82-16.51,68.82-19.18,28.73-3.2,57.22-.1,85.7,2.94,13.41,1.43,26.63,1.05,39.57-2.87,18.8-5.69,29.9-17.91,31.57-37.95.3-3.64.96-7.26,1.57-10.87.7-4.14,3.37-6.5,7.41-6.96,4.19-.48,7.27,1.68,8.45,5.56,5.65,18.61,9.68,37.56,6.25,57.04-1.87,10.6-9.03,18.45-17.49,24.75-17.72,13.19-38.11,17.66-59.55,15.25-20.47-2.3-40.65-7.08-61.09-9.73-13.8-1.79-27.98-3.51-41.72-2.25-36.8,3.39-59.44,25.35-69.3,59.82-9.86,34.48-5.39,68.2,12.33,99.41,16.5,29.07,43.19,44.71,75.06,51.62,36.55,7.91,72.23,2.77,106.96-9.88,18.75-6.83,31.19-19.93,36.24-39.55,1.66-6.44,3.28-12.89,4.93-19.34.91-3.54,1.7-7.13,2.81-10.61,1.06-3.33,2.94-6.35,7-5.79,3.92.55,5.05,3.88,5.65,7.31.12.65.14,1.32.18,1.99,2.06,33.9,5.43,67.75,3.95,101.77-.39,8.97-.99,17.99-2.29,26.86-4.93,33.64-31.79,56.56-66.72,56.79-36.32.24-72.64.04-108.96.07-11.66.01-23.32.26-34.98.21-19.19-.08-33,8.86-42.47,25.08-7.37,12.63-10.55,26.64-11.82,40.95-2.31,26.1-.08,51.88,7.51,77.08.29.96.6,1.91.92,2.85,10.23,30.22,25.88,42.14,57.74,42.13,26.3-.01,52.62-.95,78.9-2.14,22.26-1,38.2-12.32,44.97-33.53,12.58-39.43,10.31-77.46-14.33-112.39-.96-1.36-2.18-2.58-2.91-4.05-2.04-4.11-.47-6.93,4.2-7.85.33-.06.66-.11.99-.11,17.43.04,34.67,1.27,50.67,9.07,13.71,6.68,22.45,18.01,26.42,32.3,3.46,12.43,5.8,25.3,7.3,38.13,3.59,30.56,4.11,61.21-3.09,91.38-2.29,9.61-5.77,19.21-10.39,27.93-10.29,19.41-27.01,29.77-49.07,31.14-3.99.25-7.99.23-11.99.23-62.31.01-124.62-.3-186.92.22-15.91.13-26.65-6.73-34.84-19.17-9.15-13.9-13.56-29.67-16.28-45.8-7.93-47.09-11.27-94.52-8.73-142.25.85-15.92,2.06-31.89,4.35-47.66,5.8-40.02,43.46-61.46,80.45-54.28,18.94,3.68,37.63,8.66,56.62,12,34.44,6.05,68.89,7.05,102.93-3,14.79-4.37,28.72-10.57,41.06-20,11.95-9.12,20.73-20.61,25.9-34.76.65-1.76.78-3.72,1.57-7.72Z"/>
  <path class="cls-1" d="M1864.96,1752.04c2.04-1.2,3.86-1.89,5.2-3.11,29.86-27.31,66.28-33.89,104.91-32.87,34.55.91,68.08,7.65,100.53,19.54,5.92,2.17,11.65,4.92,17.31,7.72,26.68,13.18,45.06,33.87,54.79,61.94,9.89,28.54,15.53,57.9,14.13,88.22-2.18,47.14-24.25,80.6-68.84,98.26-30.32,12.01-61.94,15.2-94.15,13.87-14.62-.6-29.18-2.77-43.81-3.38-11.58-.49-23.4-.94-34.77.8-25.7,3.92-37.49,17.39-40.16,43.34-.3,2.97-.36,6.02-1.11,8.88-1.04,3.95-3.87,6.13-8.08,6.12-3.73,0-6.49-1.67-7.57-5.32-5.52-18.63-9.62-37.58-6.68-57.05,1.66-10.99,8.99-19.15,17.68-25.78,14.31-10.93,30.91-16.3,48.54-15.54,17.53.76,34.98,3.95,52.42,6.37,12.85,1.79,25.57,5.04,38.46,5.83,11.5.71,23.51.51,34.66-2.03,33.17-7.56,51.39-30.82,58.98-62.44,7.21-30.05,3.81-59.69-9.71-87.63-15.64-32.32-42.79-50.33-76.85-58.3-37.52-8.78-74.16-3.44-109.81,9.77-18.33,6.79-30.54,19.72-35.34,39.07-1.92,7.75-3.89,15.48-5.95,23.19-.85,3.2-1.52,6.61-3.17,9.38-.98,1.65-3.81,3.23-5.63,3.05-1.77-.18-3.95-2.36-4.8-4.19-1.08-2.32-1.22-5.17-1.37-7.82-2.12-37.21-6.28-74.38-2.82-111.73.67-7.28,1.25-14.67,3.04-21.72,7.32-28.91,32.88-48.79,62.98-48.94,46.65-.24,93.29-.16,139.94-.21,29.45-.03,45.44-11.66,54.91-39.77,4.63-13.74,6.22-27.99,6.35-42.31.18-20.38-2.19-40.56-8.12-60.15-1.63-5.39-3.8-10.66-6.12-15.8-8.68-19.22-23.99-29.25-44.76-29.76-21.3-.53-42.63.12-63.94.48-8.32.14-16.64.74-24.95,1.38-19.31,1.48-33.39,10.96-41.15,28.67-3.3,7.53-5.75,15.71-6.94,23.83-4,27.16-2.69,53.87,10.32,78.85,2.9,5.57,6.8,10.63,10.27,15.9,4.23,6.42,2.65,10.55-4.66,10.56-15.38.02-30.61-1.45-45.11-7.15-14.9-5.86-24.9-16.72-29.88-31.63-3.24-9.72-5.63-19.88-6.98-30.04-4.7-35.49-6.4-71.1,2.9-106.14,2.69-10.13,7.09-20.19,12.6-29.1,10.1-16.33,25.64-24.92,44.94-25.72,13.64-.57,27.31-.52,40.97-.52,52.64.02,105.29.62,157.93-.06,17.71-.23,28.97,7.62,37.38,21.73,7.08,11.88,11.27,24.94,13.65,38.4,9.54,53.95,14.26,108.25,9.81,163.03-.97,11.91-2.97,23.78-5.27,35.52-7.64,38.97-46.34,56.55-76.72,50.81-18.96-3.58-37.67-8.46-56.64-11.95-33.36-6.13-66.83-7.77-100.09.9-21.57,5.62-41.49,14.45-57.18,30.98-8.97,9.44-14.59,20.12-16.47,31.78Z"/>
  <path class="cls-1" d="M1865.71,1088.43c4.45-3.29,9.08-6.36,13.32-9.91,18.91-15.81,41.29-22.49,65.24-24.88,45.27-4.52,88.9,3.2,131.46,18.29,4.69,1.66,9.23,3.8,13.75,5.92,28.57,13.41,48.43,34.76,58.59,64.79,9.57,28.3,15.15,57.32,13.74,87.29-2.22,47.16-24.39,80.57-68.97,98.17-30.33,11.98-61.95,15.16-94.17,13.8-14.62-.62-29.18-2.85-43.81-3.38-12.24-.44-24.73-.77-36.75,1.16-22.41,3.59-33.66,15.96-37.37,38.2-.6,3.61-.73,7.29-1.27,10.91-.66,4.42-3.24,7.46-7.71,7.98-4.61.54-7.54-2.08-8.86-6.4-5.28-17.33-8.63-34.99-6.63-53.13,1.28-11.57,8.43-20.14,17.26-27.12,14.42-11.4,31.34-16.91,49.33-16.15,17.53.74,34.98,3.95,52.42,6.38,12.85,1.79,25.57,5.04,38.46,5.83,11.5.71,23.51.5,34.66-2.04,33.17-7.57,51.39-30.84,58.97-62.46,7.2-30.05,3.8-59.69-9.73-87.63-15.65-32.31-42.81-50.32-76.87-58.28-37.53-8.78-74.17-3.42-109.81,9.79-18.33,6.79-30.52,19.75-35.32,39.09-1.92,7.75-3.89,15.48-5.95,23.19-.85,3.2-1.53,6.6-3.19,9.38-.98,1.64-3.83,3.21-5.64,3.01-1.77-.2-3.83-2.39-4.78-4.22-1.02-1.96-1.11-4.51-1.25-6.82-2.32-38.21-6.4-76.38-2.81-114.72.62-6.61,1.28-13.32,2.92-19.72,7.4-28.9,32.91-48.74,63.04-48.89,46.65-.24,93.3-.16,139.95-.21,29.12-.03,44.95-11.42,54.52-38.89,4.89-14.04,6.53-28.6,6.68-43.25.2-20.38-2.18-40.56-8.14-60.15-1.64-5.39-3.8-10.66-6.13-15.8-8.69-19.23-24.03-29.22-44.8-29.71-21.63-.51-43.29.18-64.94.55-7.99.14-15.98.7-23.95,1.32-19.31,1.5-33.38,11.01-41.1,28.73-3.29,7.54-5.74,15.71-6.93,23.84-3.98,27.17-2.67,53.88,10.37,78.84,2.91,5.57,6.82,10.62,10.28,15.89,4.19,6.38,2.55,10.48-4.79,10.5-15.04.04-29.96-1.42-44.19-6.8-15.3-5.78-25.66-16.77-30.75-32.07-3.23-9.72-5.63-19.89-6.96-30.04-4.68-35.5-6.38-71.1,2.93-106.14,2.69-10.13,7.11-20.18,12.64-29.09,10.12-16.32,25.68-25.04,44.98-25.62,19.31-.58,38.64-.31,57.96-.32,47.32-.03,94.64.39,141.95-.23,15.96-.21,26.59,6.74,34.74,19.24,6.82,10.45,11.4,22,13.5,34.17,3.84,22.28,7.22,44.66,9.91,67.11,3.85,32.14,4.43,64.45,1.91,96.73-1.09,13.9-2.99,27.81-5.65,41.5-7.57,38.98-46.43,56.45-76.77,50.69-15.36-2.91-30.5-6.93-45.84-9.99-29.52-5.88-59.22-9.27-89.35-5.16-22.7,3.1-44.24,9.47-63.5,22.29-13.05,8.7-23.19,19.94-29.22,34.58-1.21,2.94-2,6.05-2.99,9.08.46.33.91.67,1.37,1Z"/>
  <path class="cls-1" d="M2517.96,423.5c5.05-3.75,10.22-7.33,15.12-11.27,16.07-12.94,34.74-19.5,54.87-22.2,50.77-6.83,99.61,1.44,146.8,20.18,34.71,13.78,57.32,39,67.73,75.03,7.53,26.06,12.57,52.48,11.29,79.73-2.24,47.64-24.65,81.29-69.71,98.7-34.6,13.37-70.6,15.85-107.2,12.96-13.61-1.08-27.19-2.94-40.82-3.39-9.23-.31-18.77.12-27.74,2.15-23.21,5.24-33.14,17.01-36.08,40.58-.41,3.3-.39,6.68-1.02,9.93-.86,4.43-3.87,7.15-8.33,7.26-4.06.09-6.85-2.36-7.97-6.33-5-17.72-8.62-35.66-6.75-54.18.91-8.99,5.84-16.22,12.07-22.46,12.83-12.85,28.81-18.87,46.55-20.52,18.78-1.74,37.21,1.15,55.53,4.93,17.94,3.7,35.86,7.3,54.32,7.6,51.99.85,75.62-33.71,82.77-65.22,6.69-29.45,3.83-58.39-8.98-85.86-16.4-35.16-45.72-53.84-82.63-61.08-34.48-6.76-68.3-2.1-101.29,9.33-20.69,7.17-34.48,20.86-39.58,42.59-1.6,6.8-3.38,13.56-5.11,20.33-.74,2.9-.99,6.17-2.56,8.54-1.42,2.15-4.24,4.28-6.64,4.53-1.48.15-3.7-3.04-4.87-5.13-.91-1.63-.85-3.88-.97-5.86-2.31-38.21-6.38-76.39-2.78-114.74.62-6.61,1.27-13.32,2.93-19.72,7.54-29.07,32.63-48.32,63.21-48.48,45.99-.25,91.98-.23,137.96-.38,4.65-.02,9.33-.22,13.96-.66,14.57-1.39,25.58-8.74,33.75-20.65,6.13-8.94,9.8-18.94,11.87-29.45,6.45-32.74,3.66-64.98-6.38-96.62-1.89-5.97-4.84-11.71-7.99-17.16-7.68-13.27-19.43-21.14-34.64-22.49-13.9-1.24-27.93-1.8-41.88-1.5-18.97.42-37.94,1.56-56.85,3.11-18.32,1.5-30.85,11.91-38.01,28.36-3.28,7.54-5.78,15.73-6.88,23.86-4.55,33.64-1.58,65.84,20.14,94.01,1.6,2.08,2.99,6.03,2.06,7.88-.96,1.89-5.02,3.34-7.54,3.1-11.9-1.13-23.92-2.1-35.56-4.64-19.43-4.24-32.43-16.64-38.55-35.45-3.07-9.43-5.31-19.29-6.61-29.12-4.3-32.49-5.55-65.03.83-97.47,2.52-12.84,6.45-25.16,13.69-36.2,9.85-15.01,23.25-24.82,41.49-26.29,12.92-1.04,25.94-1.37,38.91-1.39,55.32-.08,110.64.3,165.96,0,14.06-.08,24.29,5.57,32.29,16.44,8.04,10.94,13.12,23.4,15.42,36.53,3.96,22.59,7.88,45.3,9.61,68.12,2.04,26.86,2.3,53.89,2.23,80.85-.04,15.59-1.96,31.21-3.51,46.76-4.82,48.22-47.34,68.71-85.23,59.91-18.8-4.37-37.61-8.87-56.64-11.95-34.84-5.63-69.67-6.24-103.79,4.95-17.62,5.78-33.8,14.09-46.74,27.77-8.33,8.81-14.14,19.01-17.26,30.63.57.41,1.15.82,1.72,1.22Z"/>
  <path class="cls-1" d="M564.14,423.57c5.04-3.74,10.22-7.32,15.1-11.26,16.06-12.96,34.72-19.56,54.84-22.27,51.11-6.87,100.28,1.43,147.73,20.5,34.29,13.78,56.57,38.93,66.89,74.56,7.55,26.05,12.59,52.47,11.33,79.73-2.19,47.64-24.54,81.34-69.59,98.8-34.59,13.41-70.59,15.89-107.19,13.02-13.61-1.07-27.19-2.94-40.82-3.4-9.23-.31-18.77.09-27.74,2.11-23.26,5.22-33.22,16.94-36.2,40.47-.42,3.3-.4,6.67-1,9.93-.82,4.42-3.76,7.21-8.23,7.38-4.06.16-6.92-2.21-8.06-6.2-5.13-18.03-8.86-36.31-6.68-55.16.99-8.56,5.86-15.51,11.84-21.52,12.81-12.86,28.77-18.94,46.51-20.6,19.12-1.79,37.78,1.65,56.53,5.01,17.65,3.16,35.49,6.61,53.33,7.13,43.32,1.24,74.42-24.16,83.31-66.65,5.97-28.53,3.2-56.48-8.88-83.02-16.23-35.67-45.69-54.72-83-62.08-34.47-6.79-68.3-2.15-101.29,9.26-20.68,7.15-34.55,20.76-39.66,42.51-1.67,7.12-3.47,14.22-5.34,21.3-.85,3.2-1.55,6.6-3.21,9.37-.97,1.62-3.8,3.17-5.61,2.97-1.76-.19-3.92-2.33-4.75-4.15-1.07-2.33-1.24-5.17-1.38-7.82-2.1-37.22-6.27-74.4-2.81-111.76.67-7.28,1.24-14.68,3.03-21.72,7.4-29.05,32.6-48.44,63.1-48.61,46.32-.26,92.64-.24,138.96-.38,4.32-.01,8.66-.23,12.96-.64,14.96-1.44,26.14-9.04,34.36-21.39,7.37-11.07,11.07-23.52,12.87-36.44,4.28-30.83,1.58-61.14-8.51-90.64-1.82-5.31-4.41-10.44-7.24-15.31-7.7-13.26-19.38-21.22-34.59-22.58-14.23-1.27-28.6-1.8-42.88-1.5-18.63.39-37.27,1.52-55.85,3.07-18.73,1.56-31.37,12.23-38.48,29.17-3.06,7.29-5.47,15.12-6.53,22.93-4.57,33.64-1.63,65.84,20.04,94.04,1.61,2.1,3.07,5.97,2.18,7.88-.88,1.89-4.96,3.46-7.44,3.22-12.23-1.2-24.58-2.19-36.53-4.87-18.61-4.18-31.25-16.19-37.34-34.15-3.29-9.7-5.59-19.9-6.95-30.06-4.35-32.48-5.57-65.03.77-97.47,2.31-11.83,5.83-23.24,12.07-33.67,10.01-16.73,24.13-27.64,43.99-29.06,14.93-1.07,29.94-1.27,44.92-1.29,52.32-.08,104.65.52,156.96-.09,17.98-.21,29.66,7.67,38.2,22.25,7.16,12.23,11.54,25.58,13.67,39.42,3.25,21.03,6.44,42.16,7.84,63.36,1.71,25.89,2.12,51.91,1.98,77.86-.09,15.59-1.93,31.22-3.62,46.76-5.08,46.76-46.04,67.46-84.01,59.3-19.19-4.12-38.27-9.01-57.62-12.16-34.84-5.69-69.66-6.29-103.79,4.88-17.63,5.77-33.83,14.04-46.77,27.72-8.34,8.81-14.29,18.96-15.74,32.01Z"/>
  <path class="cls-1" d="M1213.62,424.53c6.42-4.71,11.62-8.22,16.48-12.16,16.04-12.98,34.7-19.6,54.82-22.31,51.11-6.88,100.27,1.43,147.73,20.46,34.71,13.92,57.07,39.47,67.25,75.47,8.2,29,13.64,58.37,10.23,88.71-4.2,37.42-21.85,65.81-55.96,83.13-25.44,12.92-52.8,18.62-80.96,19.33-19.91.5-39.88-1.68-59.83-2.5-12.96-.53-25.94-1.27-38.88-.88-6.16.19-12.48,2.17-18.32,4.41-15.31,5.87-24.17,17.13-26.12,33.58-.55,4.63-1.17,9.25-1.79,13.87-.62,4.66-3.56,7.23-7.99,7.46-4.03.21-6.97-2-8.12-6.05-4.75-16.73-8.18-33.68-7.22-51.18.68-12.48,7.37-21.93,16.65-29.61,12.46-10.32,27.09-15.4,43.08-16.7,18.8-1.54,37.18,1.43,55.51,5.19,19.24,3.94,38.47,7.98,58.34,7.27,35.98-1.29,61.9-19.7,74.57-53.32,15.94-42.32,3.87-98.81-27.82-128.82-20.38-19.3-45.28-29.01-72.8-31.85-28.54-2.95-56.52.75-83.77,9.61-5.98,1.94-11.8,4.56-17.37,7.48-12.36,6.48-20.88,16.5-24.96,29.86-3.1,10.17-5.47,20.57-8.3,30.83-1.2,4.35-1.46,9.78-7.88,9.86-3.86.05-5.79-3.3-6.12-10.94-1.4-32.26-2.95-64.52-3.85-96.8-.28-9.93.89-19.97,2.17-29.86,4.24-32.68,31.25-56.44,64.53-56.65,45.65-.29,91.31-.26,136.96-.37,3.33,0,6.67.07,10-.07,19.8-.78,33.94-10.33,43.01-27.78,6.74-12.96,9.66-26.97,10.75-41.29,1.88-24.77-.42-49.23-7.48-73.14-.85-2.87-1.8-5.72-2.83-8.52-8.25-22.38-23.28-36.07-47.99-37.21-7.98-.37-15.99-1.07-23.95-.78-22.63.83-45.27,1.64-67.85,3.31-19.61,1.45-32.34,13.03-39.55,30.72-7.71,18.93-9,38.82-7.06,58.93,2.02,20.95,8.42,40.31,21.81,57.02,1.47,1.84,2.97,5.66,2.1,6.91-1.4,2.01-4.83,3.75-7.32,3.66-13.97-.51-27.95-1.28-41.36-5.95-17.36-6.04-28.84-18.11-33.8-35.42-3.65-12.72-6.04-25.94-7.56-39.1-3.14-27.21-3.51-54.5,1.32-81.64,2.53-14.19,6.32-27.95,14.23-40.21,9.93-15.39,23.51-25.55,42.18-26.88,14.93-1.06,29.94-1.34,44.91-1.36,52.65-.09,105.31.49,157.96-.08,17.58-.19,29.07,7.64,37.47,21.78,8.29,13.95,12.32,29.43,15.09,45.22,6.05,34.52,8.42,69.39,9.03,104.38.47,26.98-.81,53.87-4.3,80.68-5.63,43.25-45.28,65.38-84.14,56.78-18.84-4.17-37.62-8.77-56.64-11.96-32.79-5.49-65.65-6.31-98.07,2.87-19.79,5.61-38.04,14.15-52.64,29.23-7.07,7.3-12.28,15.73-15.83,25.19-.77,2.05-.93,4.33-1.71,8.17Z"/>
  <path class="cls-1" d="M1835.76,1012.9c-6.01,4.45-10.18,7.18-13.94,10.39-19.88,16.96-43.61,23.86-68.96,26.02-44.22,3.77-86.97-3.54-128.55-18.42-40.7-14.56-66.63-42.58-77.18-84.76-6.01-24.02-10.83-48.21-9.06-73.03.87-12.17,2.97-24.54,6.56-36.18,7.74-25.05,24.41-43.14,47.48-55.45,22.11-11.79,45.96-17.2,70.67-19.9,28.41-3.11,56.52.46,84.75,2.71,10.85.87,22.16,1.07,32.77-.97,26.5-5.1,36.51-18.67,38.53-38.21.41-3.97.85-7.94,1.38-11.9.59-4.42,2.83-7.47,7.51-8.02,4.65-.55,7.71,1.59,8.99,6.06,5.06,17.71,8.92,35.7,6.72,54.16-1.61,13.46-10.44,22.84-21.29,30.07-17.37,11.57-36.91,15.45-57.28,12.99-20.13-2.44-40.06-6.54-60.09-9.82-15.49-2.53-30.96-4.13-46.71-1.68-28.93,4.5-48.27,21.06-60.12,47.05-9.88,21.66-10.91,44.59-7.29,67.61,8.86,56.29,48.17,92.47,105.04,98.26,29.74,3.03,58.43-1.24,86.64-10.21,22.29-7.09,37.38-21.16,42.67-44.59,1.54-6.81,3.26-13.59,5.05-20.34.85-3.2,1.57-6.59,3.23-9.35.99-1.65,3.84-3.27,5.62-3.05,1.78.23,3.7,2.53,4.74,4.38.91,1.62.8,3.87.96,5.85,2.97,38.2,6,76.39,3.21,114.75-1.05,14.43-3.42,28.49-12,40.67-13.68,19.44-32.66,28.88-56.25,28.96-39.66.14-79.32.03-118.98.05-8.66,0-17.33.15-25.99.24-17.02.19-29.96,7.74-39.3,21.78-7.36,11.07-10.98,23.55-12.85,36.45-4.31,29.81-1.45,59.11,7.52,87.83.79,2.54,1.79,5.01,2.77,7.49,8.79,22.24,25.32,33.74,49.07,34.36,15.98.42,31.99.15,47.97-.17,11.66-.24,23.3-1.01,34.95-1.64,24.41-1.32,40.59-12.29,47.47-35.81,11.33-38.76,9.49-76.38-15.25-110.49-.78-1.08-1.73-2.07-2.32-3.24-2.33-4.66-.73-7.71,4.37-8.5.98-.15,2.01-.22,2.99-.11,11.55,1.35,23.27,1.91,34.6,4.31,20.23,4.28,33.69,16.99,39.78,36.71,2.93,9.48,5.12,19.33,6.4,29.17,4.51,34.85,5.92,69.76-2.88,104.22-2.2,8.61-5.63,17.13-9.85,24.95-10.27,19.05-26.77,29.09-48.37,30.6-3.98.28-7.99.25-11.99.25-62.66.01-125.31-.24-187.97.2-14.62.1-24.83-6.04-32.87-17.21-7.52-10.44-12.32-22.31-14.57-34.77-3.91-21.59-7.97-43.29-9.6-65.12-2.1-28.19-2.49-56.56-2.4-84.84.05-16.59,1.7-33.27,3.95-49.73,4.19-30.62,22.52-50.4,52.11-57.31,13.28-3.1,26.48-1.23,39.53,2.06,26.51,6.68,53.2,12.24,80.6,13.82,31.06,1.79,61.22-1.83,89.68-15.09,18.59-8.66,33.93-21.04,42.92-40.07,1.27-2.7,2.3-5.52,3.33-8.33.43-1.17.57-2.45,1.38-6.12Z"/>
  <path class="cls-1" d="M1835.58,1676.74c-5.74,4.24-10.17,7.14-14.17,10.54-19.92,16.93-43.7,23.65-69.03,25.76-43.87,3.66-86.29-3.61-127.56-18.26-41.1-14.59-67.26-42.81-77.81-85.38-5.87-23.69-10.66-47.56-8.94-72.04.86-12.18,2.86-24.54,6.39-36.2,7.59-25.09,24.13-43.32,47.13-55.73,22.04-11.9,45.9-17.39,70.59-20.12,28.73-3.18,57.22-.11,85.7,2.94,13.06,1.4,25.94,1.08,38.61-2.61,18.3-5.32,30.17-16.4,32.22-36.22.41-3.97.93-7.93,1.55-11.88.69-4.4,3.13-7.41,7.7-7.92,4.72-.53,7.47,2.13,8.81,6.42,5.38,17.31,8.81,35.02,6.65,53.12-1.6,13.45-10.47,22.82-21.33,30.04-17.38,11.56-36.92,15.41-57.28,12.94-20.13-2.44-40.05-6.55-60.07-9.82-15.15-2.48-30.31-4.11-45.72-1.82-31.48,4.67-51.59,23.08-62.97,51.84-8.32,21.03-8.95,43.01-5,64.94,10.11,56.12,48.37,90.55,105.62,96.36,29.04,2.95,57.05-1.41,84.68-9.94,23.18-7.16,38.55-21.66,43.97-45.81,1.53-6.82,3.13-13.62,4.93-20.37.85-3.18,1.75-6.54,3.53-9.22,2.6-3.91,7.73-3.26,9.54,1.1.99,2.39,1.19,5.17,1.39,7.81,2.81,37.53,5.96,75.06,3.1,112.73-.55,7.28-1.31,14.66-3.1,21.7-7.53,29.55-33.08,48.83-65.02,49.01-39.32.22-78.64.04-117.95.07-8.99,0-17.99.15-26.98.24-17.01.16-29.98,7.63-39.35,21.66-7.19,10.76-10.85,22.88-12.74,35.44-4.69,31.17-1.63,61.73,8.21,91.65.52,1.58,1.2,3.11,1.81,4.65,8.76,22.22,25.19,33.81,48.95,34.53,14.64.44,29.32.3,43.97-.02,13.32-.29,26.63-1.14,39.93-1.83,23.15-1.2,39.62-12.52,46.3-34.61,11.82-39.07,10.01-76.93-14.71-111.46-.97-1.35-2.17-2.6-2.83-4.09-1.84-4.17-.15-7.64,4.48-7.71,20.15-.31,40.08,1.1,57.61,12.61,9.84,6.46,16.27,15.89,19.61,26.97,2.96,9.83,5.36,19.95,6.74,30.11,4.36,32.15,5.75,64.43-1.01,96.42-2.25,10.63-5.75,21.3-10.57,31.01-10.33,20.78-27.83,31.61-51.15,32.71-3.33.16-6.66.15-9.99.15-62.64,0-125.29-.27-187.93.21-15.03.11-25.47-6.16-33.6-17.74-7.38-10.51-12.11-22.38-14.34-34.86-3.8-21.27-7.94-42.63-9.44-64.12-2.06-29.52-2.34-59.21-2.32-88.82.01-15.25,1.81-30.57,3.73-45.74,5.68-45,45.39-64.97,81.56-57.8,18.6,3.69,36.99,8.47,55.64,11.81,34.77,6.22,69.56,7.26,103.9-2.96,19.4-5.78,37.29-14.42,51.32-29.53,8.19-8.82,14.23-18.88,17.07-32.83Z"/>
  <path class="cls-1" d="M561.9,1752.71c3.24-1.87,5.06-2.53,6.38-3.73,29.86-27.31,66.28-33.94,104.92-32.92,34.56.91,68.09,7.65,100.55,19.53,5.61,2.05,11.04,4.66,16.42,7.27,27.11,13.15,45.84,33.94,55.7,62.39,9.89,28.54,15.54,57.92,14.13,88.24-2.19,47.16-24.28,80.61-68.87,98.27-30.33,12.01-61.96,15.19-94.18,13.85-14.63-.61-29.19-2.78-43.82-3.39-11.58-.48-23.4-.92-34.78.82-25.33,3.86-37.14,17.13-39.99,42.42-.37,3.3-.42,6.69-1.24,9.87-1.01,3.96-3.93,6.06-8.14,6.02-3.76-.03-6.44-1.79-7.51-5.41-5.48-18.64-9.62-37.6-6.62-57.07,1.69-10.99,9.04-19.12,17.75-25.75,14.34-10.9,30.95-16.25,48.58-15.47,17.54.78,34.98,3.98,52.42,6.41,13.18,1.84,26.24,4.69,39.46,6.11,37.87,4.07,68.55-11.18,84.21-42.62,4.97-9.97,8.47-21.15,10.18-32.15,3.46-22.33,1.2-44.51-6.58-65.91-14.13-38.84-42.96-60.86-82.09-70.07-37.52-8.83-74.19-3.39-109.82,9.89-17.93,6.68-30.03,19.35-34.92,38.27-2,7.73-3.96,15.47-5.99,23.19-.85,3.21-1.28,6.73-2.95,9.47-1.15,1.87-4.1,3.51-6.29,3.57-1.54.04-3.67-2.49-4.59-4.35-.99-1.99-1.07-4.52-1.2-6.84-2.25-37.88-6.36-75.73-2.82-113.75.65-6.94,1.31-13.99,3.06-20.71,7.5-28.91,32.97-48.52,63.22-48.66,46.66-.21,93.31-.15,139.97-.2,28.88-.03,44.85-11.63,54.33-39.19,4.94-14.37,6.54-29.28,6.58-44.27.06-19.37-2.2-38.57-7.67-57.24-1.68-5.73-3.89-11.34-6.32-16.8-8.73-19.62-24.21-30.21-45.44-30.27-29.97-.09-59.96.69-89.89,2.1-18.07.85-31.53,10.58-39.04,27.02-3.69,8.06-6.42,16.91-7.7,25.67-3.96,27.17-2.53,53.9,10.59,78.83,2.93,5.56,6.92,10.56,10.35,15.86,3.84,5.93,2.25,10.14-4.42,10.15-16.73.04-33.33-1.42-48.82-8.52-13.13-6.02-22.03-16.32-26.51-29.77-3.34-10.04-5.84-20.52-7.24-31.01-4.36-32.48-5.53-65.04.85-97.47,2.53-12.83,6.51-25.12,13.75-36.18,10.98-16.78,26.39-26.23,46.49-26.81,18.98-.55,37.98-.28,56.97-.29,47.32-.03,94.66.46,141.97-.26,16.86-.26,28.43,6.91,35.87,20.62,5.49,10.13,9.79,21.2,12.72,32.35,6.62,25.19,8.56,51.15,10.46,77.06,2.57,34.95,2.63,69.89-.56,104.8-.72,7.93-1.92,15.85-3.45,23.67-7.65,38.98-46.2,56.67-76.64,50.99-18.97-3.54-37.68-8.45-56.66-11.94-36.09-6.65-72.18-7.99-107.8,2.99-18.69,5.76-35.87,14.29-49.54,28.78-8.32,8.82-14,19.04-17.77,32.52Z"/>
  <path class="cls-1" d="M2517.61,1752.13c4.45-3.29,9.07-6.36,13.31-9.89,18.91-15.81,41.3-22.5,65.25-24.9,45.28-4.52,88.92,3.19,131.48,18.31,5.31,1.89,10.43,4.39,15.52,6.84,27.49,13.2,46.52,34.11,56.48,62.95,9.87,28.56,15.49,57.93,14.06,88.25-2.21,46.7-23.99,80.05-68.12,97.77-30.6,12.29-62.55,15.53-95.12,14.14-14.63-.62-29.19-2.79-43.82-3.4-11.58-.48-23.4-.87-34.78.87-25.23,3.87-37.03,17.22-39.81,42.59-.33,2.98-.26,6.04-.95,8.93-.91,3.85-3.32,6.49-7.62,6.74-4.19.25-7.2-1.5-8.38-5.56-5.37-18.33-9.32-36.96-6.72-56.11,1.5-11.05,8.68-19.31,17.29-26.04,14.19-11.09,30.74-15.6,48.43-16.22,18.13-.63,35.73,3.37,53.42,6.61,13.09,2.4,26.22,4.8,39.44,6.19,37.59,3.98,67.32-11.08,83.85-41.82,5.58-10.38,9.14-21.5,10.58-33.13,2.73-22.11,1-43.9-6.52-65.01-13.87-38.88-42.5-61.26-81.6-70.65-37.82-9.08-74.84-3.69-110.79,9.8-17.91,6.72-29.96,19.45-34.79,38.38-1.97,7.74-3.95,15.47-5.98,23.19-.85,3.21-1.29,6.74-3,9.45-1.15,1.83-4.2,3.36-6.38,3.35-1.55-.01-3.59-2.6-4.48-4.47-.96-2.01-1.03-4.53-1.16-6.85-2.19-37.55-6.3-75.06-2.85-112.75.64-6.95,1.2-14,2.85-20.75,7.15-29.21,33.04-49.29,63.67-49.42,46.99-.2,93.98-.13,140.97-.22,4.32,0,8.72.06,12.95-.66,13.51-2.27,24.03-9.33,31.65-20.73,6.02-9,9.7-18.98,11.75-29.5,6.4-32.76,3.48-64.95-6.46-96.63-1.19-3.79-3.01-7.39-4.68-11.02-8.48-18.4-23.16-28.86-43.11-29.04-30.96-.29-61.96.54-92.88,2.1-17.21.86-30.23,10.46-37.46,26.15-3.85,8.35-6.8,17.49-8.12,26.56-3.95,27.16-2.47,53.9,10.7,78.81,2.94,5.56,6.97,10.53,10.38,15.84,3.77,5.88,2.05,10-4.72,10.01-16.4.03-32.67-1.44-47.9-8.19-13.55-5.99-22.7-16.48-27.31-30.3-3.24-9.72-5.61-19.88-7.02-30.04-4.56-32.81-5.68-65.69.74-98.45,2.45-12.5,6.33-24.49,13.26-35.32,11.01-17.2,26.6-26.93,47.13-27.5,18.98-.53,37.98-.27,56.97-.28,46.99-.03,93.99.54,140.97-.28,18.17-.32,29.53,7.89,37.99,22.43,6.78,11.66,10.86,24.4,13.22,37.51,9.48,52.66,12.71,105.74,9.05,159.15-.91,13.25-2.07,26.58-4.56,39.6-7.44,39.02-46.32,56.55-76.69,50.79-18.96-3.59-37.68-8.47-56.65-11.95-33.37-6.12-66.85-7.75-100.11.93-21.58,5.63-41.5,14.46-57.17,31.03-8.31,8.79-13.95,19.01-15.66,31.79Z"/>
  <path class="cls-1" d="M1214.09,1752.68c5.52-4.09,9.93-7.04,13.98-10.42,18.91-15.78,41.28-22.54,65.24-24.92,45.63-4.53,89.61,3.16,132.41,18.63,40.36,14.59,65.74,42.89,76.02,84.59,1.99,8.07,3.98,16.17,5.42,24.36,4.1,23.41,6.03,46.86,1.05,70.46-6.67,31.62-23.87,55.2-52.69,70.11-28.47,14.73-59.11,20.41-90.76,20.15-20.27-.17-40.52-2.7-60.8-3.43-12.24-.44-24.87-1.14-36.73,1.24-26.3,5.28-35.76,19.18-37.53,40.15-.31,3.65-.89,7.28-1.53,10.88-.73,4.09-3.25,6.51-7.43,6.84-4.15.33-7.33-1.46-8.44-5.5-5.03-18.35-9.55-36.84-6.6-56.08,1.89-12.35,9.89-20.92,19.55-27.88,13.68-9.86,29.38-13.9,46.01-14.47,18.13-.62,35.73,3.36,53.42,6.6,13.09,2.4,26.22,4.84,39.44,6.21,44.17,4.6,78.06-17.26,90.61-58.39,2.51-8.21,4-16.87,4.82-25.43,1.5-15.71-.39-31.28-4.5-46.5-12.3-45.56-48.32-76.13-96.17-82.75-30.71-4.25-60.43-.08-89.74,8.66-6.32,1.89-12.43,4.81-18.26,7.96-11.92,6.43-20.23,16.21-24.38,29.16-2.44,7.6-4.37,15.36-6.44,23.07-.95,3.53-1.54,7.17-2.56,10.68-1.14,3.93-2.63,8.11-7.85,7.32-4.5-.68-5.23-4.62-5.47-8.41-2.62-41.53-6.72-82.98-2.36-124.69,3.76-35.91,30.63-61.25,66.62-61.37,46.65-.15,93.31-.12,139.96-.18,26.94-.03,42.86-11.07,52.27-36.41,8.2-22.08,8.88-45.03,6.51-68.02-1.33-12.85-4.4-25.55-7.27-38.18-1.24-5.45-3.71-10.68-6.07-15.81-8.62-18.77-23.65-29.14-44.01-29.27-30.62-.19-61.3.47-91.87,2.17-19.82,1.1-32.96,13.14-40.21,31.36-7.17,18.02-8.65,36.91-7.1,56,1.75,21.63,8.03,41.75,21.74,59.13,1.62,2.05,3.1,5.99,2.17,7.78-.98,1.88-5.02,3.3-7.54,3.05-12.55-1.26-25.28-2.1-37.49-5.03-18.95-4.54-31.5-17.32-37.05-35.78-3.61-12.03-5.83-24.61-7.35-37.11-3.81-31.23-4.5-62.55,3.1-93.35,2.52-10.21,6.45-20.38,11.55-29.57,10.3-18.57,26.85-28.23,48.17-28.96,12.98-.45,25.99-.45,38.98-.44,52.98.03,105.97.59,158.95-.04,17.25-.2,28.43,7.32,36.72,21.11,8.54,14.22,12.73,29.99,15.41,46.14,8.77,52.79,10.9,105.93,7.54,159.29-.63,9.94-1.84,19.92-3.74,29.69-7.15,36.8-40.81,59.87-77.83,53.13-18.98-3.45-37.66-8.51-56.65-11.94-35.76-6.46-71.52-7.81-106.83,3.03-18.7,5.74-35.9,14.2-49.65,28.59-9.11,9.53-15.01,20.67-16.74,32.79Z"/>
  <path class="cls-1" d="M1215.31,1088.08c4.24-3.15,8.65-6.1,12.7-9.48,18.91-15.79,41.27-22.57,65.23-24.96,45.63-4.54,89.62,3.14,132.42,18.6,40.36,14.58,65.78,42.85,76.07,84.56,1.99,8.07,3.98,16.17,5.42,24.36,4.11,23.41,6.04,46.86,1.08,70.46-6.65,31.63-23.84,55.22-52.66,70.14-28.47,14.74-59.1,20.43-90.76,20.17-20.27-.16-40.52-2.7-60.81-3.43-12.24-.44-24.86-1.13-36.73,1.23-25.75,5.11-35.8,18.76-37.56,40.13-.27,3.31-.97,6.58-1.49,9.87-.66,4.21-3.44,6.58-7.34,7.06-4.02.49-7.33-1.46-8.51-5.45-5.42-18.29-9.73-36.81-6.53-56.03,1.98-11.9,9.82-20.23,19.2-27,13.96-10.09,30.03-15.16,46.95-14.36,17.54.84,34.98,3.96,52.43,6.38,13.51,1.88,26.89,4.9,40.44,6.22,44.04,4.32,77.96-17.99,90.13-59.15,2.44-8.24,3.86-16.91,4.59-25.48,1.48-17.43-.82-34.63-6.13-51.27-13.16-41.28-42.45-65.16-83.62-74.9-37.5-8.87-74.19-3.43-109.83,9.81-17.92,6.65-30.08,19.29-35.05,38.18-2.2,8.37-4.35,16.74-6.54,25.11-.59,2.25-1.18,4.5-1.9,6.71-1.04,3.2-3.49,5.71-6.6,4.58-2.28-.82-4.91-3.77-5.3-6.12-1.19-7.2-1.6-14.56-1.91-21.88-1.04-24.62-2.27-49.24-2.66-73.87-.18-11.61.92-23.3,2.26-34.86,3.8-32.85,31.48-57.41,64.91-57.59,46.99-.24,93.98-.15,140.97-.21,27.34-.03,43.45-11.28,52.77-37.16,7.97-22.13,8.61-45.08,6.11-68.08-1.36-12.51-4.38-24.87-7.11-37.2-1.07-4.82-3.22-9.44-5.19-14.01-8.82-20.5-24.68-31.06-46.77-31.44-20.64-.35-41.3.18-61.95.54-7.99.14-15.97.85-23.95,1.29-21.98,1.22-36.83,12.33-44.64,32.69-7.19,18.73-8.46,38.25-6.5,58.03,2.08,20.97,8.67,40.2,22,56.94,4.75,5.97,2.7,10.24-4.8,10.29-15.06.09-29.98-1.42-44.2-6.8-16.43-6.22-27.02-18.35-31.75-34.9-3.36-11.77-5.58-23.99-7.07-36.16-3.81-31.23-4.54-62.56,3.07-93.35,2.6-10.52,6.67-21.03,12-30.45,10.26-18.12,26.67-27.65,47.6-28.19,18.98-.49,37.98-.25,56.97-.26,46.99-.02,93.99.5,140.97-.27,17.73-.29,29,7.7,37.3,21.86,8.2,13.99,12.31,29.46,14.93,45.28,8.76,52.79,10.92,105.93,7.55,159.3-.63,9.94-1.83,19.92-3.72,29.69-7.11,36.82-40.76,59.96-77.75,53.25-18.98-3.44-37.67-8.51-56.65-11.94-35.76-6.47-71.52-7.83-106.83,2.99-18.71,5.73-35.94,14.16-49.67,28.56-8.36,8.77-14.33,18.88-17.32,30.55.58.46,1.15.92,1.73,1.38Z"/>
  <path class="cls-1" d="M564.06,1088.31c4.51-3.34,9.2-6.47,13.51-10.06,18.67-15.52,40.75-22.19,64.33-24.56,45.95-4.62,90.26,3.03,133.34,18.78,39.91,14.6,65.04,42.52,75.4,83.88,5.93,23.68,10.28,47.47,9.48,72.01-1.62,50.03-26.18,84-73.23,101.31-29.26,10.77-59.62,13.58-90.46,12.2-14.62-.65-29.18-2.86-43.8-3.41-11.91-.45-24.06-.74-35.76,1.12-23.26,3.68-34.74,16.4-38.21,39.69-.54,3.62-.57,7.33-1.35,10.89-.87,3.96-3.74,6.43-7.76,6.67-4.08.25-6.99-1.93-8.23-5.91-5.61-17.95-9.19-36.28-6.62-55.07,1.51-11.04,8.72-19.28,17.35-26,14.21-11.07,30.75-15.56,48.44-16.16,18.13-.61,35.72,3.39,53.4,6.63,13.09,2.4,26.21,4.97,39.44,6.14,30.66,2.71,57.52-4.99,76.86-30.87,9.8-13.11,15.44-28.02,17.49-44.09,2.83-22.09,1.01-43.89-6.52-64.99-13.87-38.87-42.5-61.24-81.59-70.63-37.81-9.08-74.82-3.69-110.76,9.78-17.9,6.71-29.97,19.42-34.8,38.35-1.97,7.73-3.95,15.47-5.98,23.19-.85,3.21-1.29,6.74-2.99,9.45-1.15,1.84-4.17,3.4-6.35,3.4-1.55,0-3.61-2.57-4.51-4.44-.97-2.01-1.04-4.53-1.17-6.84-2.25-37.88-6.34-75.71-2.8-113.72.65-6.94,1.33-13.99,3.08-20.7,7.55-28.9,33-48.42,63.28-48.55,46.65-.2,93.29-.15,139.94-.2,28.52-.03,44.46-11.42,53.96-38.28,5.18-14.66,6.84-29.88,6.9-45.21.06-19.36-2.21-38.56-7.67-57.22-1.68-5.73-3.89-11.34-6.32-16.8-8.73-19.61-24.21-30.2-45.43-30.26-29.96-.09-59.95.69-89.87,2.1-18.07.85-31.53,10.56-39.05,26.99-3.69,8.06-6.42,16.9-7.7,25.66-4.04,27.52-2.45,54.55,10.98,79.72,2.96,5.54,7.15,10.41,10.49,15.77,3.3,5.3,1.37,9.41-4.89,9.39-17.05-.06-33.99-1.39-49.71-8.94-13.03-6.25-21.65-16.72-26-30.21-3.15-9.76-5.56-19.9-6.92-30.06-4.34-32.48-5.54-65.02.81-97.45,2.32-11.83,5.87-23.24,12.1-33.65,11.09-18.52,27.24-29,49.02-29.52,18.98-.45,37.97-.22,56.96-.23,47.31-.02,94.63.37,141.94-.22,15.54-.2,25.98,6.58,34.06,18.64,6.95,10.37,10.99,22.02,13.86,34.05,6.04,25.34,8.4,51.18,10.31,77.09,2.58,34.94,2.65,69.87-.53,104.77-.72,7.93-1.91,15.84-3.42,23.66-7.61,39.54-46.96,57.15-77.41,51.13-18.93-3.74-37.65-8.56-56.63-11.99-35.75-6.45-71.51-7.78-106.81,3.07-18.69,5.75-35.89,14.21-49.61,28.63-8.39,8.82-14.17,19.04-15.84,32.05Z"/>
  <path class="cls-1" d="M2517.61,1088.43c4.45-3.29,9.09-6.37,13.33-9.92,18.91-15.8,41.3-22.48,65.24-24.87,45.27-4.52,88.97,3.01,131.41,18.42,9.93,3.6,19.48,8.68,28.55,14.16,21.39,12.93,35.37,32.1,43.48,55.49,9.9,28.54,15.51,57.91,14.08,88.23-2.21,47.16-24.39,80.56-68.97,98.17-30.33,11.98-61.95,15.16-94.16,13.8-14.62-.62-29.18-2.85-43.81-3.38-12.24-.44-24.73-.77-36.74,1.15-22.41,3.59-33.66,15.95-37.38,38.18-.6,3.61-.73,7.29-1.27,10.91-.66,4.42-3.23,7.46-7.69,7.99-4.6.55-7.55-2.06-8.87-6.38-5.29-17.33-8.63-34.99-6.64-53.13,1.27-11.57,8.42-20.14,17.25-27.13,14.41-11.4,31.33-16.91,49.32-16.16,17.53.73,34.98,3.94,52.42,6.37,12.85,1.79,25.57,5.04,38.46,5.83,11.5.71,23.51.51,34.66-2.03,33.17-7.56,51.4-30.81,58.99-62.43,7.21-30.05,3.81-59.69-9.71-87.63-15.63-32.32-42.79-50.33-76.84-58.3-37.52-8.78-74.16-3.45-109.81,9.76-18.33,6.79-30.54,19.72-35.35,39.06-1.92,7.75-3.89,15.48-5.95,23.19-.85,3.2-1.52,6.61-3.17,9.39-.98,1.65-3.81,3.25-5.62,3.06-1.77-.18-3.95-2.35-4.8-4.19-1.08-2.32-1.22-5.17-1.37-7.82-2.12-37.21-6.28-74.38-2.83-111.73.67-7.28,1.25-14.67,3.03-21.72,7.31-28.91,32.87-48.8,62.97-48.95,46.65-.24,93.29-.16,139.94-.21,29.37-.03,45.48-11.74,54.92-39.76,4.63-13.74,6.22-27.99,6.35-42.31.18-20.38-2.22-40.54-8.1-60.16-1.33-4.45-3.1-8.78-4.88-13.08-8.82-21.4-25.06-32.37-48.01-32.64-20.97-.25-41.96.29-62.94.69-7.99.15-15.98.71-23.95,1.32-19.31,1.47-33.4,10.95-41.15,28.66-3.3,7.53-5.75,15.71-6.95,23.83-4.01,27.16-2.7,53.87,10.31,78.85,2.9,5.57,6.79,10.63,10.27,15.9,4.24,6.43,2.67,10.56-4.63,10.58-15.38.03-30.61-1.45-45.11-7.15-14.9-5.85-24.9-16.71-29.89-31.62-3.25-9.72-5.63-19.88-6.98-30.04-4.7-35.49-6.4-71.1,2.89-106.14,2.69-10.13,7.08-20.19,12.6-29.11,10.1-16.33,25.63-24.92,44.93-25.73,13.31-.56,26.65-.52,39.97-.52,53.31.02,106.62.53,159.93-.02,16.42-.17,27.16,7.1,35.35,19.98,7.79,12.27,12.16,25.98,14.7,40.09,9.47,52.65,12.69,105.72,9.01,159.12-.89,12.91-2.06,25.89-4.35,38.61-7.25,40.21-47.46,57.76-77.97,51.47-18.57-3.83-37-8.41-55.65-11.8-35.75-6.5-71.49-7.9-106.82,2.86-19.05,5.8-36.54,14.39-50.42,29.16-8.28,8.81-13.91,19.02-15.61,31.76Z"/>
  <path class="cls-1" d="M1988.49,1266.16c-11.32,0-22.64-.21-33.94.04-30.93.7-49.75-24.18-48.36-49.24.55-9.95,0-19.96.11-29.94.27-26.24,18.46-46.04,44.55-46.87,25.6-.81,51.26-.76,76.86-.04,26.16.74,44.3,20.38,44.52,46.69.09,11.31.15,22.63-.02,33.93-.36,24.89-18,43.76-42.8,45.04-13.61.7-27.28.13-40.92.13,0,.08,0,.17,0,.25Z"/>
  <path class="cls-1" d="M2640.59,1929.85c-11.65,0-23.3-.14-34.94.03-29.8.44-48.86-23.78-47.55-49.02.52-9.95,0-19.96.1-29.94.24-26.3,18.3-46.18,44.35-47.04,25.93-.85,51.93-.9,77.86.02,25.73.91,43.49,20.55,43.72,46.41.1,11.31.14,22.62-.01,33.93-.34,25.33-18.15,44.1-43.6,45.3-13.28.63-26.61.11-39.92.11,0,.06,0,.13,0,.19Z"/>
  <path class="cls-1" d="M1988.85,1929.85c-11.65,0-23.3-.16-34.94.03-30.08.49-48.98-23.9-47.72-48.86.5-9.96.01-19.96.1-29.94.22-26.76,18.65-46.59,45.18-47.29,25.27-.67,50.59-.65,75.87,0,26.25.67,44.62,20.16,44.87,46.35.11,11.64.19,23.29-.02,34.93-.45,24.24-18.17,43.08-42.42,44.38-13.6.73-27.28.13-40.92.13,0,.09,0,.18,0,.27Z"/>
  <path class="cls-1" d="M687.11,1929.85c-11.65,0-23.3-.16-34.94.03-30.19.51-49.02-23.94-47.78-48.79.5-9.96.02-19.96.1-29.94.21-26.79,18.6-46.63,45.12-47.35,25.27-.68,50.59-.65,75.87-.02,26.25.66,44.68,20.13,44.94,46.29.11,11.64.19,23.29-.02,34.93-.44,24.27-18.12,43.13-42.36,44.44-13.6.73-27.28.13-40.92.13v.27Z"/>
  <path class="cls-1" d="M687.57,1266.16c-11.65,0-23.3-.21-34.94.04-30.71.66-49.68-24.06-48.25-49.34.56-9.95,0-19.96.11-29.94.29-26.57,19.04-46.25,45.65-46.85,24.95-.57,49.93-.54,74.87,0,26.71.58,45.2,20.08,45.41,46.85.09,11.31.15,22.63-.02,33.93-.38,24.83-18.09,43.67-42.9,44.95-13.27.68-26.61.12-39.92.12,0,.08,0,.16,0,.24Z"/>
  <path class="cls-1" d="M2641.62,1266.17c-11.32,0-22.64-.32-33.94.06-32.55,1.09-51.27-24.62-49.6-50.03.63-9.61.03-19.29.12-28.94.24-26.32,18.26-46.21,44.32-47.07,25.93-.86,51.93-.9,77.86.01,25.73.9,43.52,20.54,43.75,46.38.1,11.64.2,23.29-.03,34.93-.47,24.17-18.27,42.97-42.55,44.26-13.27.71-26.61.13-39.92.13,0,.09,0,.18,0,.28Z"/>
  <path class="cls-1" d="M1338.22,1929.74c-12.64,0-25.3.25-37.93-.06-18.24-.45-31.92-8.97-39.9-25.27-2.82-5.76-4.09-12.66-4.49-19.14-.7-11.6-.27-23.28-.19-34.92.19-26.26,18.38-45.8,44.63-46.53,25.27-.71,50.59-.64,75.87-.03,26.51.64,45.11,20.4,45.43,47.11.13,10.64-.08,21.29.04,31.94.3,26.27-20.42,47.05-45.52,46.95-12.65-.05-25.29,0-37.94,0,0-.01,0-.02,0-.04Z"/>
  <path class="cls-1" d="M1338.4,1265.84c-13.64,0-27.3.45-40.92-.12-15.4-.65-27.04-8.43-35.26-21.28-4.39-6.86-6.62-14.43-6.55-22.68.11-11.64-.04-23.29.03-34.93.17-26.33,18.24-45.93,44.45-46.7,25.6-.74,51.26-.75,76.86.03,25.62.78,44.06,20.33,44.58,45.87.24,11.64.3,23.29-.02,34.93-.67,24.74-18.68,43.61-43.27,44.85-13.28.67-26.61.12-39.92.12,0-.03,0-.06,0-.08Z"/>
  <path class="cls-1" d="M1060.33,171.86c11.98,0,23.96-.12,35.94.02,26.19.32,45.38,19.09,46.02,45.16.29,11.97.31,23.96-.02,35.93-.69,25.51-20,44.57-45.38,44.77-24.96.19-49.92.19-74.88,0-25.34-.19-44.92-19.31-45.68-44.64-.37-12.3-.41-24.63.02-36.93.86-24.83,20.26-43.82,45.04-44.27,12.98-.24,25.96-.04,38.94-.05Z"/>
  <path class="cls-1" d="M2641.1,475.55c12.31,0,24.63-.14,36.94.02,26.84.35,45.77,19.27,46.07,45.99.13,11.64.18,23.29-.01,34.93-.42,24.48-18.64,44.06-43.21,44.84-26.27.83-52.59.8-78.86.03-24.93-.73-43.33-20.46-43.81-45.49-.22-11.64-.23-23.29,0-34.93.51-25.46,19.62-44.77,44.94-45.33,12.64-.28,25.29-.05,37.94-.05Z"/>
  <path class="cls-1" d="M1989.4,475.54c12.31,0,24.63.24,36.94-.05,25.93-.61,46.96,21.92,45.98,46.27-.47,11.63.09,23.29-.12,34.93-.44,24-18.34,43.68-42.41,44.56-26.92.98-53.93.99-80.85-.02-24.02-.9-41.95-20.51-42.59-44.56-.32-11.97-.27-23.96-.02-35.93.55-25.41,19.74-44.62,45.13-45.14,12.64-.26,25.29-.05,37.94-.05Z"/>
  <path class="cls-1" d="M1338.14,475.54c12.65,0,25.3-.19,37.94.04,25.46.46,44.71,19.34,45.51,44.8.38,11.97.35,23.96.01,35.93-.7,24.98-19.36,44.44-44.3,45.09-25.94.68-51.93.71-77.87-.03-25.09-.72-43.4-20.33-43.7-45.34-.14-11.64-.12-23.29,0-34.93.27-26.08,19.22-45.1,45.48-45.52,12.31-.2,24.63-.03,36.94-.03Z"/>
  <path class="cls-1" d="M687.75,475.54c11.98,0,23.98.34,35.94-.08,26.76-.93,47.89,22.07,46.82,46.45-.5,11.29.04,22.62-.11,33.93-.33,24.68-18.14,44.54-42.59,45.41-26.92.95-53.94,1-80.85-.05-24-.94-41.84-20.61-42.44-44.71-.3-11.97-.28-23.96,0-35.93.59-25.37,19.85-44.49,45.29-44.98,12.64-.25,25.29-.04,37.94-.05Z"/>
  <path class="cls-1" d="M1709.68,297.78c-12.31,0-24.63.12-36.94-.03-24.99-.31-44.29-18.88-45.2-43.87-.46-12.63-.45-25.29,0-37.92.89-25.08,19.96-43.75,45.02-44.04,24.62-.28,49.25-.18,73.88-.04,26.38.15,45.56,18.1,46.97,44.39.66,12.27.65,24.64.02,36.91-1.35,26.31-20.63,44.42-46.8,44.59-12.31.08-24.63.01-36.94.01Z"/>
  <path class="cls-1" d="M2362.01,297.79c-12.31,0-24.63.1-36.94-.02-25.56-.26-44.84-18.89-45.66-44.45-.4-12.3-.4-24.63,0-36.92.83-25.61,19.94-44.24,45.62-44.48,24.63-.23,49.26-.19,73.88-.01,25.74.19,44.83,18.09,46.36,43.96.74,12.6.75,25.31,0,37.91-1.55,26.26-20.86,43.9-47.32,44.02-11.98.06-23.96,0-35.94,0Z"/>
  <path class="cls-1" d="M407.82,297.79c-11.98,0-23.96.08-35.94-.02-26.22-.2-45.46-18.8-46.21-44.94-.34-11.97-.34-23.96,0-35.93.75-26.18,19.83-44.81,46.13-45.01,24.29-.19,48.59-.16,72.88-.01,26.34.16,45.54,18.16,46.92,44.44.65,12.27.65,24.64,0,36.92-1.37,26.3-20.65,44.37-46.85,44.53-12.31.08-24.63.01-36.94.01Z"/>
  <path class="cls-1" d="M1059.24,962.3c-12.31,0-24.63.15-36.94-.03-26.59-.38-45.59-19.47-46.03-46.21-.18-10.97-.17-21.96,0-32.93.41-26.3,18.54-45.71,44.87-46.53,25.6-.79,51.26-.83,76.85,0,25.94.85,43.83,19.99,44.32,45.84.22,11.64.26,23.29-.02,34.93-.63,25.74-19.42,44.42-45.12,44.88-12.64.23-25.29.04-37.93.04Z"/>
  <path class="cls-1" d="M1059.12,1626c-12.31,0-24.63.16-36.94-.03-26.13-.39-45.27-19.28-45.88-45.33-.26-10.97-.15-21.96-.03-32.93.3-27.84,19.04-46.9,46.99-47.58,11.97-.29,23.96-.06,35.94-.06,11.65,0,23.3.15,34.94-.02,31.15-.45,49.62,24.22,48.34,48.23-.58,10.95.11,21.96-.17,32.93-.66,25.7-19.5,44.32-45.25,44.76-12.64.22-25.29.04-37.93.04Z"/>
  <path class="cls-1" d="M2362.07,962.31c-12.31,0-24.63.14-36.93-.03-26.36-.36-45.11-18.83-45.78-45.21-.3-11.63-.29-23.29,0-34.92.63-25.54,18.05-44.47,43.62-45.43,26.25-.98,52.59-1.01,78.84.04,24.96,1,42.38,19.57,43.55,44.71.56,11.95.51,23.96.02,35.92-1.2,29.59-25.15,46.17-47.38,45.04-11.95-.61-23.95-.11-35.93-.11Z"/>
  <path class="cls-1" d="M1709.83,1626.01c-12.31,0-24.63.16-36.93-.04-25.83-.41-44.64-18.77-45.42-44.55-.37-12.3-.39-24.62.03-36.92.81-23.65,17.31-41.19,40.92-43.97,2.63-.31,5.31-.43,7.96-.44,22.63-.03,45.25-.15,67.88,0,30.29.21,49.04,19.05,49.33,49.39.09,9.65.02,19.29,0,28.94-.03,30.91-24.38,48.97-47.85,47.7-11.94-.65-23.95-.11-35.93-.12Z"/>
  <path class="cls-1" d="M2362.07,1626.01c-12.31,0-24.63.14-36.93-.03-26.36-.36-45.11-18.83-45.78-45.22-.3-11.63-.29-23.29,0-34.92.63-25.54,18.05-44.47,43.62-45.43,26.25-.98,52.59-1.01,78.84.04,24.96,1,42.38,19.57,43.55,44.71.56,11.95.51,23.96.02,35.92-1.2,29.59-25.15,46.17-47.38,45.04-11.95-.61-23.95-.11-35.93-.11Z"/>
  <path class="cls-1" d="M407.94,962.31c-12.31,0-24.63.16-36.93-.04-25.79-.42-44.59-18.83-45.35-44.62-.36-12.3-.39-24.62.04-36.92.82-23.63,17.36-41.14,40.99-43.91,2.31-.27,4.64-.42,6.96-.42,23.29-.03,46.59-.23,69.88.03,29.07.32,47.82,19.28,48.25,48.44.15,9.98.04,19.96.02,29.94-.06,30.83-24.35,48.92-47.92,47.62-11.94-.66-23.95-.11-35.93-.12Z"/>
  <path class="cls-1" d="M1710.38,962.31c-12.31,0-24.62.12-36.93-.03-26.44-.33-45.27-18.69-45.99-45-.32-11.63-.28-23.29-.01-34.92.61-26.36,18.83-44.84,45.4-45.88,10.96-.43,21.96-.1,32.94-.1,13.31,0,26.62-.19,39.93.04,28.55.49,47.32,19.28,47.86,47.82.2,10.31.09,20.62.02,30.94-.2,30.29-24.14,48.66-48.28,47.26-11.61-.67-23.29-.12-34.93-.12Z"/>
  <path class="cls-1" d="M408.38,1626.01c-12.31,0-24.62.14-36.93-.03-26.37-.36-45.12-18.81-45.81-45.19-.29-11.3-.23-22.62-.03-33.93.49-27.5,18.92-46.01,46.61-46.72,11.31-.29,22.63-.06,33.94-.06,12.64,0,25.29-.2,37.93.05,28.5.55,47.18,19.39,47.68,48.01.18,10.31.12,20.62,0,30.94-.33,30.73-24.69,48.22-47.46,47.05-11.95-.61-23.95-.11-35.93-.11Z"/>
</svg>